<svg xmlns="http://www.w3.org/2000/svg" xmlns:xlink="http://www.w3.org/1999/xlink" width="91" height="88" viewBox="0 0 91 88">
  <defs>
    <clipPath id="clip-path">
      <rect id="Retângulo_8" data-name="Retângulo 8" width="91" height="88" transform="translate(143 368)" fill="#f9f2f3" stroke="#f20f38" stroke-width="1"/>
    </clipPath>
  </defs>
  <g id="MEIO2" transform="translate(-143 -368)" clip-path="url(#clip-path)">
    <g id="monitor-loading-progress" transform="translate(136.795 360.513)">
      <path id="Caminho_136" data-name="Caminho 136" d="M93.068,57.123A41.364,41.364,0,1,0,14.022,74.186H89.387A41.208,41.208,0,0,0,93.068,57.123Z" fill="#f9f2f3"/>
      <line id="Linha_67" data-name="Linha 67" x2="80.659" transform="translate(11.375 74.186)" fill="none" stroke="#f20f38" stroke-linecap="round" stroke-linejoin="round" stroke-width="1.034"/>
      <line id="Linha_68" data-name="Linha 68" x2="2.585" transform="translate(6.722 74.186)" fill="none" stroke="#f20f38" stroke-linecap="round" stroke-linejoin="round" stroke-width="1.034"/>
      <line id="Linha_69" data-name="Linha 69" x2="2.585" transform="translate(94.102 74.186)" fill="none" stroke="#f20f38" stroke-linecap="round" stroke-linejoin="round" stroke-width="1.034"/>
      <ellipse id="Elipse_29" data-name="Elipse 29" cx="15.356" cy="1.768" rx="15.356" ry="1.768" transform="translate(35.759 84.103)" fill="#f9f2f3"/>
      <path id="Caminho_137" data-name="Caminho 137" d="M74.744,44.569a3.743,3.743,0,0,0-3.754-3.743H32.419a3.743,3.743,0,0,0-3.754,3.743V70.142H74.744Z" fill="#f9f2f3"/>
      <path id="Caminho_138" data-name="Caminho 138" d="M59.45,40.826H32.419a3.743,3.743,0,0,0-3.754,3.743V70.142h1.468Z" fill="#f9f2f3"/>
      <path id="Caminho_139" data-name="Caminho 139" d="M57.289,81.311H46.12l.693-5.584H56.6Z" fill="#f9f2f3"/>
      <path id="Caminho_140" data-name="Caminho 140" d="M57.289,81.311H46.12l.693-5.584H56.6Z" fill="none" stroke="#f20f38" stroke-linecap="round" stroke-linejoin="round" stroke-width="1.034"/>
      <path id="Caminho_141" data-name="Caminho 141" d="M59.7,84.1H43.711a.869.869,0,0,1-.807-1.21,2.792,2.792,0,0,1,2.513-1.582H57.992A2.792,2.792,0,0,1,60.5,82.893.869.869,0,0,1,59.7,84.1Z" fill="#f9f2f3" stroke="#f20f38" stroke-linecap="round" stroke-linejoin="round" stroke-width="1.034"/>
      <path id="Caminho_142" data-name="Caminho 142" d="M70.99,75.726a3.743,3.743,0,0,0,3.754-3.743V70.142H28.665v1.841a3.743,3.743,0,0,0,3.754,3.743Z" fill="#f9f2f3" stroke="#f20f38" stroke-linecap="round" stroke-linejoin="round" stroke-width="1.034"/>
      <path id="Caminho_143" data-name="Caminho 143" d="M74.744,44.569a3.743,3.743,0,0,0-3.754-3.743H32.419a3.743,3.743,0,0,0-3.754,3.743V70.142H74.744Z" fill="none" stroke="#f20f38" stroke-linecap="round" stroke-linejoin="round" stroke-width="1.034"/>
      <path id="Caminho_144" data-name="Caminho 144" d="M52.325,72.934a.62.62,0,1,1-.62-.62A.62.62,0,0,1,52.325,72.934Z" fill="none" stroke="#f20f38" stroke-linecap="round" stroke-linejoin="round" stroke-width="1.034"/>
      <path id="Caminho_145" data-name="Caminho 145" d="M65.551,60.174a2.492,2.492,0,0,1-2.471,2.5H40.33a2.5,2.5,0,0,1,0-4.995H63.08A2.492,2.492,0,0,1,65.551,60.174Z" fill="#f9f2f3" stroke="#f20f38" stroke-linejoin="round" stroke-width="1.034"/>
      <path id="Caminho_146" data-name="Caminho 146" d="M57.02,57.682H40.33a2.5,2.5,0,0,0,0,4.995H57.02Z" fill="#f9f2f3" stroke="#f20f38" stroke-linejoin="round" stroke-width="1.034"/>
      <path id="Caminho_147" data-name="Caminho 147" d="M57.02,57.682H40.33a2.5,2.5,0,0,0,0,4.995H57.02Z" fill="none" stroke="#f20f38" stroke-linejoin="round" stroke-width="1.034"/>
      <path id="Caminho_148" data-name="Caminho 148" d="M43.649,24.136a1.262,1.262,0,0,0-1.034,2.016L50.67,36.586a1.262,1.262,0,0,0,1.985,0l8.056-10.434a1.262,1.262,0,0,0-1.034-2.016h-3.1V18.345a2.492,2.492,0,0,0-2.492-2.492H49.2a2.492,2.492,0,0,0-2.492,2.492v5.791Z" fill="#f9f2f3"/>
      <path id="Caminho_149" data-name="Caminho 149" d="M43.649,24.136a1.262,1.262,0,0,0-1.034,2.016L50.67,36.586a1.262,1.262,0,0,0,1.985,0l8.056-10.434a1.262,1.262,0,0,0-1.034-2.016h-3.1V18.345a2.492,2.492,0,0,0-2.492-2.492H49.2a2.492,2.492,0,0,0-2.492,2.492v5.791Z" fill="none" stroke="#f20f38" stroke-linejoin="round" stroke-width="1.034"/>
    </g>
  </g>
</svg>
