<svg xmlns="http://www.w3.org/2000/svg" xmlns:xlink="http://www.w3.org/1999/xlink" width="91" height="88" viewBox="0 0 91 88">
  <defs>
    <clipPath id="clip-path">
      <rect id="Retângulo_8" data-name="Retângulo 8" width="91" height="88" transform="translate(254 365)" fill="#f9f2f3" stroke="#f20f38" stroke-width="1"/>
    </clipPath>
  </defs>
  <g id="MEIO3" transform="translate(-254 -365)" clip-path="url(#clip-path)">
    <g id="monitor-cash-credit-card" transform="translate(253.411 365.769)">
      <path id="Caminho_150" data-name="Caminho 150" d="M83.1,49.411a36.977,36.977,0,1,0-70.654,15.3H79.806a36.838,36.838,0,0,0,3.291-15.3Z" fill="#f9f2f3"/>
      <line id="Linha_70" data-name="Linha 70" x2="72.105" transform="translate(9.605 64.664)" fill="none" stroke="#f20f38" stroke-linecap="round" stroke-linejoin="round" stroke-width="0.924"/>
      <line id="Linha_71" data-name="Linha 71" x2="2.311" transform="translate(5.445 64.664)" fill="none" stroke="#f20f38" stroke-linecap="round" stroke-linejoin="round" stroke-width="0.924"/>
      <line id="Linha_72" data-name="Linha 72" x2="2.311" transform="translate(83.559 64.664)" fill="none" stroke="#f20f38" stroke-linecap="round" stroke-linejoin="round" stroke-width="0.924"/>
      <ellipse id="Elipse_30" data-name="Elipse 30" cx="14.56" cy="1.451" rx="14.56" ry="1.451" transform="translate(31.763 77.097)" fill="#f9f2f3"/>
      <path id="Caminho_151" data-name="Caminho 151" d="M64.368,65.736V47.146a2.33,2.33,0,0,0-2.33-2.33H30.608a2.33,2.33,0,0,0-2.339,2.33v18.59Z" fill="#f9f2f3"/>
      <path id="Caminho_152" data-name="Caminho 152" d="M32.928,65.736,53.894,44.77H30.6a2.33,2.33,0,0,0-2.33,2.376v18.59Z" fill="#f9f2f3"/>
      <path id="Caminho_153" data-name="Caminho 153" d="M64.368,65.736v4.622a2.33,2.33,0,0,1-2.33,2.33H30.608a2.33,2.33,0,0,1-2.33-2.33V65.736Z" fill="#f9f2f3" stroke="#f20f38" stroke-linecap="round" stroke-linejoin="round" stroke-width="0.924"/>
      <path id="Caminho_154" data-name="Caminho 154" d="M47.488,69.23a1.165,1.165,0,1,1-1.165-1.165,1.165,1.165,0,0,1,1.165,1.165Z" fill="#f9f2f3" stroke="#f20f38" stroke-linecap="round" stroke-linejoin="round" stroke-width="0.924"/>
      <path id="Caminho_155" data-name="Caminho 155" d="M52.147,77.384H40.49l.592-4.659H51.565Z" fill="#f9f2f3" stroke="#f20f38" stroke-linecap="round" stroke-linejoin="round" stroke-width="0.924"/>
      <line id="Linha_73" data-name="Linha 73" x2="18.627" transform="translate(37.005 77.384)" fill="none" stroke="#f20f38" stroke-linecap="round" stroke-linejoin="round" stroke-width="0.924"/>
      <path id="Caminho_156" data-name="Caminho 156" d="M64.368,65.736V47.146a2.33,2.33,0,0,0-2.33-2.33H30.608a2.33,2.33,0,0,0-2.339,2.33v18.59Z" fill="none" stroke="#f20f38" stroke-linecap="round" stroke-linejoin="round" stroke-width="0.924"/>
      <path id="Caminho_157" data-name="Caminho 157" d="M53.312,55.253a6.989,6.989,0,1,1-6.989-6.989A6.989,6.989,0,0,1,53.312,55.253Z" fill="#f9f2f3"/>
      <path id="Caminho_158" data-name="Caminho 158" d="M53.312,55.253a6.989,6.989,0,1,1-6.989-6.989A6.989,6.989,0,0,1,53.312,55.253Z" fill="none" stroke="#f20f38" stroke-linecap="round" stroke-linejoin="round" stroke-width="0.924"/>
      <path id="Caminho_159" data-name="Caminho 159" d="M45.158,59.33a1.738,1.738,0,0,1-1.239-.508l-2.32-2.33a1.747,1.747,0,0,1,2.468-2.468l1.1,1.091,2.838-2.838a1.747,1.747,0,0,1,2.468,2.468L46.4,58.821A1.729,1.729,0,0,1,45.158,59.33Z" fill="#f9f2f3"/>
      <path id="Caminho_160" data-name="Caminho 160" d="M45.158,59.33a1.738,1.738,0,0,1-1.239-.508l-2.32-2.33a1.747,1.747,0,0,1,2.468-2.468l1.1,1.091,2.838-2.838a1.747,1.747,0,0,1,2.468,2.468L46.4,58.821A1.729,1.729,0,0,1,45.158,59.33Z" fill="none" stroke="#f20f38" stroke-linecap="round" stroke-linejoin="round" stroke-width="0.924"/>
      <rect id="Retângulo_67" data-name="Retângulo 67" width="23.296" height="13.977" rx="0.971" transform="translate(1.16 33.067) rotate(-15.83)" fill="#f9f2f3"/>
      <path id="Caminho_161" data-name="Caminho 161" d="M23.869,36.321,22.6,31.837a2.339,2.339,0,0,1-2.884-1.609L6.277,34.037a2.339,2.339,0,0,1-1.609,2.884l1.266,4.483A2.33,2.33,0,0,1,8.819,43L22.26,39.2A2.33,2.33,0,0,1,23.869,36.321Z" fill="#f9f2f3"/>
      <path id="Caminho_162" data-name="Caminho 162" d="M16.51,35.979a2.33,2.33,0,1,1-2.875-1.6,2.33,2.33,0,0,1,2.875,1.6Z" fill="#f9f2f3"/>
      <path id="Caminho_163" data-name="Caminho 163" d="M16.51,35.979a2.33,2.33,0,1,1-2.875-1.6,2.33,2.33,0,0,1,2.875,1.6Z" fill="none" stroke="#f20f38" stroke-linecap="round" stroke-linejoin="round" stroke-width="0.924"/>
      <path id="Caminho_164" data-name="Caminho 164" d="M23.869,36.321,22.6,31.837a2.339,2.339,0,0,1-2.884-1.609L6.277,34.037a2.339,2.339,0,0,1-1.609,2.884l1.266,4.483A2.33,2.33,0,0,1,8.819,43L22.26,39.2A2.33,2.33,0,0,1,23.869,36.321Z" fill="none" stroke="#f20f38" stroke-linecap="round" stroke-linejoin="round" stroke-width="0.924"/>
      <rect id="Retângulo_68" data-name="Retângulo 68" width="23.296" height="13.977" rx="0.971" transform="translate(1.16 33.067) rotate(-15.83)" fill="none" stroke="#f20f38" stroke-linecap="round" stroke-linejoin="round" stroke-width="0.924"/>
      <path id="Caminho_165" data-name="Caminho 165" d="M85.805,45.981,69.378,41.276a1.932,1.932,0,0,1-1.331-2.394l2.773-9.706a1.932,1.932,0,0,1,2.394-1.331L89.67,32.549A1.941,1.941,0,0,1,91,34.943L88.227,44.65a1.932,1.932,0,0,1-2.422,1.331Z" fill="#f9f2f3"/>
      <rect id="Retângulo_69" data-name="Retângulo 69" width="20.966" height="2.33" transform="translate(70.726 29.546) rotate(15.98)" fill="#f9f2f3"/>
      <line id="Linha_74" data-name="Linha 74" x2="5.602" y2="1.599" transform="translate(70.395 39.15)" fill="none" stroke="#f20f38" stroke-linecap="round" stroke-linejoin="round" stroke-width="0.924"/>
      <rect id="Retângulo_70" data-name="Retângulo 70" width="16.307" height="2.33" transform="translate(71.682 34.662) rotate(15.98)" fill="#f9f2f3"/>
      <path id="Caminho_166" data-name="Caminho 166" d="M85.805,45.981,69.378,41.276a1.932,1.932,0,0,1-1.331-2.394l2.773-9.706a1.932,1.932,0,0,1,2.394-1.331L89.67,32.549A1.941,1.941,0,0,1,91,34.943L88.227,44.65a1.932,1.932,0,0,1-2.422,1.331Z" fill="none" stroke="#f20f38" stroke-linecap="round" stroke-linejoin="round" stroke-width="0.924"/>
      <rect id="Retângulo_71" data-name="Retângulo 71" width="20.966" height="2.33" transform="translate(70.726 29.546) rotate(15.98)" fill="none" stroke="#f20f38" stroke-linecap="round" stroke-linejoin="round" stroke-width="0.924"/>
      <rect id="Retângulo_72" data-name="Retângulo 72" width="16.307" height="2.33" transform="translate(71.682 34.662) rotate(15.98)" fill="none" stroke="#f20f38" stroke-linecap="round" stroke-linejoin="round" stroke-width="0.924"/>
      <circle id="Elipse_31" data-name="Elipse 31" cx="7.765" cy="7.765" r="7.765" transform="translate(38.558 19.875)" fill="#f9f2f3"/>
      <path id="Caminho_167" data-name="Caminho 167" d="M46.323,19.875a7.765,7.765,0,0,0-5.491,13.256L51.814,22.186A7.774,7.774,0,0,0,46.323,19.875Z" fill="#f9f2f3"/>
      <circle id="Elipse_32" data-name="Elipse 32" cx="7.765" cy="7.765" r="7.765" transform="translate(38.558 19.875)" fill="none" stroke="#f20f38" stroke-miterlimit="10" stroke-width="0.924"/>
      <line id="Linha_75" data-name="Linha 75" y2="0.971" transform="translate(46.323 31.523)" fill="none" stroke="#f20f38" stroke-linecap="round" stroke-linejoin="round" stroke-width="0.924"/>
      <line id="Linha_76" data-name="Linha 76" y2="0.971" transform="translate(46.323 22.787)" fill="none" stroke="#f20f38" stroke-linecap="round" stroke-linejoin="round" stroke-width="0.924"/>
      <path id="Caminho_168" data-name="Caminho 168" d="M44.373,29.582a1.941,1.941,0,1,0,1.941-1.941A1.941,1.941,0,1,1,48.255,25.7" fill="none" stroke="#f20f38" stroke-linecap="round" stroke-linejoin="round" stroke-width="0.924"/>
    </g>
  </g>
</svg>
