<svg xmlns="http://www.w3.org/2000/svg" xmlns:xlink="http://www.w3.org/1999/xlink" width="30" height="28" viewBox="0 0 30 28">
  <defs>
    <clipPath id="clip-path">
      <rect id="Ret칙ngulo_1032" data-name="Ret칙ngulo 1032" width="30" height="28" transform="translate(312 277)" fill="#a61731" stroke="#707070" stroke-width="1"/>
    </clipPath>
  </defs>
  <g id="Grupo_de_m치scara_108" data-name="Grupo de m치scara 108" transform="translate(-312 -277)" clip-path="url(#clip-path)">
    <g id="lixo" transform="translate(313 277)">
      <g id="Grupo_38675" data-name="Grupo 38675">
        <path id="Caminho_41444" data-name="Caminho 41444" d="M25.674,4.03H19.849V3.08A3.083,3.083,0,0,0,16.769,0H11.231a3.083,3.083,0,0,0-3.08,3.08v.95H2.326a.777.777,0,0,0,0,1.554h1.4v18.26A4.162,4.162,0,0,0,7.887,28H20.113a4.162,4.162,0,0,0,4.156-4.156V5.584h1.4a.777.777,0,0,0,0-1.554ZM9.706,3.08a1.528,1.528,0,0,1,1.525-1.525h5.538A1.528,1.528,0,0,1,18.294,3.08v.95H9.706Zm13.01,20.764a2.607,2.607,0,0,1-2.6,2.6H7.887a2.607,2.607,0,0,1-2.6-2.6V5.584H22.721v18.26Z" fill="#a61731"/>
        <path id="Caminho_41445" data-name="Caminho 41445" d="M14,23.66a.774.774,0,0,0,.777-.777V9.147a.777.777,0,1,0-1.554,0V22.877A.779.779,0,0,0,14,23.66Z" fill="#a61731"/>
        <path id="Caminho_41446" data-name="Caminho 41446" d="M8.928,22.8a.774.774,0,0,0,.777-.777V10a.777.777,0,1,0-1.554,0V22.025A.778.778,0,0,0,8.928,22.8Z" fill="#a61731"/>
        <path id="Caminho_41447" data-name="Caminho 41447" d="M19.072,22.8a.774.774,0,0,0,.777-.777V10a.777.777,0,1,0-1.554,0V22.025A.774.774,0,0,0,19.072,22.8Z" fill="#a61731"/>
      </g>
    </g>
  </g>
</svg>
