<svg xmlns="http://www.w3.org/2000/svg" xmlns:xlink="http://www.w3.org/1999/xlink" width="91" height="88" viewBox="0 0 91 88">
  <defs>
    <clipPath id="clip-path">
      <rect id="Retângulo_8" data-name="Retângulo 8" width="91" height="88" transform="translate(32 368)" fill="#f9f2f3" stroke="#f20f38" stroke-width="1"/>
    </clipPath>
  </defs>
  <g id="MEIO1" transform="translate(-32 -368)" clip-path="url(#clip-path)">
    <g id="monitor-window" transform="translate(25.795 360.035)">
      <path id="Caminho_127" data-name="Caminho 127" d="M93.585,57.837A41.364,41.364,0,1,0,14.539,74.9H89.9A41.239,41.239,0,0,0,93.585,57.837Z" fill="#f9f2f3"/>
      <line id="Linha_58" data-name="Linha 58" x2="80.659" transform="translate(11.375 74.899)" fill="none" stroke="#f20f38" stroke-linecap="round" stroke-linejoin="round" stroke-width="1.034"/>
      <line id="Linha_59" data-name="Linha 59" x2="2.585" transform="translate(6.722 74.899)" fill="none" stroke="#f20f38" stroke-linecap="round" stroke-linejoin="round" stroke-width="1.034"/>
      <line id="Linha_60" data-name="Linha 60" x2="2.585" transform="translate(94.102 74.899)" fill="none" stroke="#f20f38" stroke-linecap="round" stroke-linejoin="round" stroke-width="1.034"/>
      <rect id="Retângulo_57" data-name="Retângulo 57" width="49.947" height="35.676" rx="3.723" transform="translate(24.456 42.698)" fill="#f9f2f3"/>
      <path id="Caminho_128" data-name="Caminho 128" d="M54.662,42.7H28.737a4.281,4.281,0,0,0-4.281,4.281V72.9Z" fill="#f9f2f3"/>
      <rect id="Retângulo_58" data-name="Retângulo 58" width="49.947" height="35.676" rx="3.723" transform="translate(24.456 42.698)" fill="none" stroke="#f20f38" stroke-linecap="round" stroke-linejoin="round" stroke-width="1.034"/>
      <path id="Caminho_129" data-name="Caminho 129" d="M70.122,78.374a4.281,4.281,0,0,0,4.333-4.281V72.666h-50v1.427a4.281,4.281,0,0,0,4.281,4.281Z" fill="#f9f2f3" stroke="#f20f38" stroke-linecap="round" stroke-linejoin="round" stroke-width="1.034"/>
      <path id="Caminho_130" data-name="Caminho 130" d="M53.711,84.082H45.148l.714-5.708H53Z" fill="#f9f2f3"/>
      <path id="Caminho_131" data-name="Caminho 131" d="M53.711,84.082H45.148l.714-5.708H53Z" fill="none" stroke="#f20f38" stroke-linecap="round" stroke-linejoin="round" stroke-width="1.034"/>
      <path id="Caminho_132" data-name="Caminho 132" d="M58.705,86.936H40.154a2.854,2.854,0,0,1,2.854-2.854H55.841a2.864,2.864,0,0,1,2.864,2.854Z" fill="#f9f2f3" stroke="#f20f38" stroke-linecap="round" stroke-linejoin="round" stroke-width="1.034"/>
      <path id="Caminho_133" data-name="Caminho 133" d="M35.873,37.7H77.236V62.335a2.482,2.482,0,0,1-2.482,2.482h-36.4a2.482,2.482,0,0,1-2.482-2.482Z" fill="#f9f2f3" stroke="#f20f38" stroke-linecap="round" stroke-linejoin="round" stroke-width="1.034"/>
      <path id="Caminho_134" data-name="Caminho 134" d="M38.354,29.141H74.775a2.482,2.482,0,0,1,2.482,2.482V37.7H35.893v-6.08a2.482,2.482,0,0,1,2.461-2.482Z" fill="#f9f2f3" stroke="#f20f38" stroke-linecap="round" stroke-linejoin="round" stroke-width="1.034"/>
      <circle id="Elipse_25" data-name="Elipse 25" cx="1.427" cy="1.427" r="1.427" transform="translate(38.727 31.995)" fill="#f9f2f3" stroke="#f20f38" stroke-linecap="round" stroke-linejoin="round" stroke-width="1.034"/>
      <circle id="Elipse_26" data-name="Elipse 26" cx="1.427" cy="1.427" r="1.427" transform="translate(44.435 31.995)" fill="#f9f2f3" stroke="#f20f38" stroke-linecap="round" stroke-linejoin="round" stroke-width="1.034"/>
      <circle id="Elipse_27" data-name="Elipse 27" cx="1.427" cy="1.427" r="1.427" transform="translate(50.143 31.995)" fill="#f9f2f3" stroke="#f20f38" stroke-linecap="round" stroke-linejoin="round" stroke-width="1.034"/>
      <rect id="Retângulo_59" data-name="Retângulo 59" width="5.708" height="5.708" rx="1.034" transform="translate(48.716 46.265)" fill="#f9f2f3" stroke="#f20f38" stroke-linecap="round" stroke-linejoin="round" stroke-width="1.034"/>
      <rect id="Retângulo_60" data-name="Retângulo 60" width="5.708" height="5.708" rx="1.034" transform="translate(57.992 46.265)" fill="#f9f2f3" stroke="#f20f38" stroke-linecap="round" stroke-linejoin="round" stroke-width="1.034"/>
      <rect id="Retângulo_61" data-name="Retângulo 61" width="5.708" height="5.708" rx="1.034" transform="translate(67.268 46.265)" fill="#f9f2f3" stroke="#f20f38" stroke-linecap="round" stroke-linejoin="round" stroke-width="1.034"/>
      <rect id="Retângulo_62" data-name="Retângulo 62" width="5.708" height="5.708" rx="1.034" transform="translate(48.716 54.827)" fill="#f9f2f3" stroke="#f20f38" stroke-linecap="round" stroke-linejoin="round" stroke-width="1.034"/>
      <rect id="Retângulo_63" data-name="Retângulo 63" width="5.708" height="5.708" rx="1.034" transform="translate(57.992 54.827)" fill="#f9f2f3" stroke="#f20f38" stroke-linecap="round" stroke-linejoin="round" stroke-width="1.034"/>
      <rect id="Retângulo_64" data-name="Retângulo 64" width="5.708" height="5.708" rx="1.034" transform="translate(67.268 54.827)" fill="#f9f2f3" stroke="#f20f38" stroke-linecap="round" stroke-linejoin="round" stroke-width="1.034"/>
      <rect id="Retângulo_65" data-name="Retângulo 65" width="5.708" height="2.854" rx="1.034" transform="translate(40.154 40.557)" fill="#f9f2f3" stroke="#f20f38" stroke-linecap="round" stroke-linejoin="round" stroke-width="1.034"/>
      <rect id="Retângulo_66" data-name="Retângulo 66" width="24.26" height="2.854" rx="1.034" transform="translate(48.716 40.557)" fill="#f9f2f3" stroke="#f20f38" stroke-linejoin="round" stroke-width="1.034"/>
      <line id="Linha_61" data-name="Linha 61" x2="5.708" transform="translate(40.154 46.265)" fill="none" stroke="#f20f38" stroke-linecap="round" stroke-linejoin="round" stroke-width="1.034"/>
      <line id="Linha_62" data-name="Linha 62" x2="5.708" transform="translate(40.154 49.119)" fill="none" stroke="#f20f38" stroke-linecap="round" stroke-linejoin="round" stroke-width="1.034"/>
      <line id="Linha_63" data-name="Linha 63" x2="5.708" transform="translate(40.154 51.973)" fill="none" stroke="#f20f38" stroke-linecap="round" stroke-linejoin="round" stroke-width="1.034"/>
      <line id="Linha_64" data-name="Linha 64" x2="5.708" transform="translate(40.154 54.827)" fill="none" stroke="#f20f38" stroke-linecap="round" stroke-linejoin="round" stroke-width="1.034"/>
      <line id="Linha_65" data-name="Linha 65" x2="5.708" transform="translate(40.154 57.682)" fill="none" stroke="#f20f38" stroke-linecap="round" stroke-linejoin="round" stroke-width="1.034"/>
      <line id="Linha_66" data-name="Linha 66" x2="3.568" transform="translate(40.154 60.536)" fill="none" stroke="#f20f38" stroke-linecap="round" stroke-linejoin="round" stroke-width="1.034"/>
      <path id="Caminho_135" data-name="Caminho 135" d="M86.533,76.161c-.207.755-.62.776-.92,0L80.928,64.982c-.3-.724,0-1.034.776-.765l11.23,4.674c.724.31.693.724-.062.931l-3.6,1.034A2.792,2.792,0,0,0,87.515,72.6Z" fill="#f9f2f3" stroke="#f20f38" stroke-linejoin="round" stroke-width="1.034"/>
      <circle id="Elipse_28" data-name="Elipse 28" cx="0.6" cy="0.6" r="0.6" transform="translate(48.83 74.92)" fill="none" stroke="#f20f38" stroke-linecap="round" stroke-linejoin="round" stroke-width="1.034"/>
    </g>
  </g>
</svg>
