<svg id="Settings_2" data-name="Settings 2" xmlns="http://www.w3.org/2000/svg" width="26" height="26" viewBox="0 0 26 26">
  <path id="Caminho_41195" data-name="Caminho 41195" d="M0,0H26V26H0Z" fill="none"/>
  <path id="Caminho_41196" data-name="Caminho 41196" d="M2,13a11.113,11.113,0,0,1,.348-2.764A3.311,3.311,0,0,0,5.289,5.127a10.98,10.98,0,0,1,4.769-2.765,3.295,3.295,0,0,0,5.883,0,10.98,10.98,0,0,1,4.769,2.765,3.311,3.311,0,0,0,2.943,5.11,11.157,11.157,0,0,1,0,5.527,3.311,3.311,0,0,0-2.943,5.109,10.98,10.98,0,0,1-4.769,2.765,3.295,3.295,0,0,0-5.883,0,10.98,10.98,0,0,1-4.769-2.765,3.311,3.311,0,0,0-2.943-5.11A11.135,11.135,0,0,1,2,13Zm5.284,3.311A5.53,5.53,0,0,1,7.9,20.2a8.8,8.8,0,0,0,1.427.828,5.488,5.488,0,0,1,7.337,0A8.8,8.8,0,0,0,18.1,20.2a5.521,5.521,0,0,1,3.667-6.373,9,9,0,0,0,0-1.656A5.52,5.52,0,0,1,18.094,5.8a8.781,8.781,0,0,0-1.427-.828,5.487,5.487,0,0,1-7.336,0A8.782,8.782,0,0,0,7.9,5.8a5.521,5.521,0,0,1-3.667,6.373,9,9,0,0,0,0,1.656,5.5,5.5,0,0,1,3.048,2.483Zm5.716,0A3.311,3.311,0,1,1,16.3,13,3.306,3.306,0,0,1,13,16.311ZM13,14.1A1.1,1.1,0,1,0,11.9,13,1.1,1.1,0,0,0,13,14.1Z" fill="#a61731"/>
</svg>
