<svg xmlns="http://www.w3.org/2000/svg" xmlns:xlink="http://www.w3.org/1999/xlink" width="30" height="30" viewBox="0 0 30 30">
  <defs>
    <clipPath id="clip-path">
      <rect id="Ret칙ngulo_1019" data-name="Ret칙ngulo 1019" width="30" height="30" rx="8" transform="translate(0 4)" fill="#a61731"/>
    </clipPath>
  </defs>
  <g id="icon" transform="translate(0 -4)">
    <g id="Grupo_de_m치scara_101" data-name="Grupo de m치scara 101" clip-path="url(#clip-path)">
      <g id="brigadeiro" transform="translate(0.807 4)">
        <path id="Caminho_41391" data-name="Caminho 41391" d="M28.116,14.719a.879.879,0,0,0-.885-.2l-1.627.535-1.628-.535a.879.879,0,0,0-.549,0l-1.627.535-1.627-.535a.879.879,0,0,0-.549,0L18,15.052l-1.628-.535a.879.879,0,0,0-.549,0l-1.627.535-1.627-.535a.879.879,0,0,0-.549,0l-1.627.535-1.627-.535a.879.879,0,0,0-.549,0l-1.627.535-1.627-.535a.879.879,0,0,0-.549,0l-1.628.535-1.627-.535A.879.879,0,0,0,.035,15.6L3.273,26.823A4.36,4.36,0,0,0,7.5,30h13.37a4.361,4.361,0,0,0,4.22-3.168L28.35,15.6a.879.879,0,0,0-.233-.877Z" fill="#a61731"/>
        <path id="Caminho_41392" data-name="Caminho 41392" d="M1.7,12.847l1.079.354,1.079-.355a2.631,2.631,0,0,1,.823-.132l.12,0a.877.877,0,0,1,.438-.744l2.286-1.32a.879.879,0,1,1,.879,1.522l-1.713.989.97-.319a2.637,2.637,0,0,1,1.647,0l1.078.354,1.079-.355a2.63,2.63,0,0,1,.548-.117.873.873,0,0,1,.247-.5l1.356-1.356a.879.879,0,0,1,1.243,1.243l-.978.978.309.1,1.079-.355a2.637,2.637,0,0,1,1.647,0L18,13.2l1.079-.355a2.632,2.632,0,0,1,.471-.108l-.926-.926a.879.879,0,1,1,1.243-1.243l1.6,1.6a.878.878,0,0,1,.181.978l.155.051,1.079-.355a2.637,2.637,0,0,1,1.647,0L25.6,13.2l1.079-.355a2.627,2.627,0,0,1,.373-.093.879.879,0,0,1-.191-.082l-1.66-.959a.879.879,0,0,1,.879-1.522l.8.464A12.923,12.923,0,0,0,20.9,1.889a.876.876,0,0,1-.411.542l-2.286,1.32a.879.879,0,1,1-.879-1.522L19.332,1.07a12.883,12.883,0,0,0-9.809-.2c.016.013.031.027.046.041L11.65,3A.879.879,0,1,1,10.407,4.24L8.327,2.16a.875.875,0,0,1-.257-.609,12.983,12.983,0,0,0-3.9,3.241L5.878,6.5A.879.879,0,1,1,4.635,7.741L3.147,6.253a12.811,12.811,0,0,0-1.844,6.5,2.638,2.638,0,0,1,.4.1Zm17.391-5.2,1.333-1.333a.879.879,0,0,1,1.243,1.243L20.336,8.894a.879.879,0,0,1-1.243-1.243ZM13.346,5.238a.879.879,0,0,1,1.243,0l1.6,1.6a.879.879,0,1,1-1.243,1.243l-1.6-1.6A.879.879,0,0,1,13.346,5.238ZM8.473,7.113,9.829,5.757A.879.879,0,0,1,11.072,7L9.716,8.356A.879.879,0,0,1,8.473,7.113Z" fill="#a61731"/>
        <path id="Caminho_41393" data-name="Caminho 41393" d="M3.8,4.418A.879.879,0,1,0,2.555,5.661l.592.592A12.951,12.951,0,0,1,4.172,4.792Z" fill="#a61731"/>
        <path id="Caminho_41394" data-name="Caminho 41394" d="M8.327.917a.876.876,0,0,0-.257.634A12.832,12.832,0,0,1,9.524.875a.878.878,0,0,0-1.2.041Z" fill="#a61731"/>
        <path id="Caminho_41395" data-name="Caminho 41395" d="M20.813,1.23a.879.879,0,0,0-1.2-.322l-.28.162a12.857,12.857,0,0,1,1.57.819A.876.876,0,0,0,20.813,1.23Z" fill="#a61731"/>
        <path id="Caminho_41396" data-name="Caminho 41396" d="M27.056,12.754a.879.879,0,0,0,.688-1.6l-.856-.494a12.9,12.9,0,0,1,.193,2.093l-.025,0Z" fill="#a61731"/>
        <path id="Caminho_41397" data-name="Caminho 41397" d="M19.9,12.715a2.634,2.634,0,0,0-.353.024l.676.676a.877.877,0,0,0,1.424-.265l-.924-.3a2.631,2.631,0,0,0-.823-.132Z" fill="#a61731"/>
        <path id="Caminho_41398" data-name="Caminho 41398" d="M12.29,12.715a2.641,2.641,0,0,0-.275.015.878.878,0,0,0,1.49.748l.378-.378-.769-.253A2.629,2.629,0,0,0,12.29,12.715Z" fill="#a61731"/>
        <path id="Caminho_41399" data-name="Caminho 41399" d="M5.506,12.847a2.632,2.632,0,0,0-.7-.129A.878.878,0,0,0,6.12,13.5l.573-.331-.109.036Z" fill="#a61731"/>
      </g>
    </g>
  </g>
</svg>
