<svg id="Componente_89_1" data-name="Componente 89 – 1" xmlns="http://www.w3.org/2000/svg" width="26" height="26" viewBox="0 0 26 26">
  <path id="Caminho_41220" data-name="Caminho 41220" d="M0,0H26V26H0Z" fill="none"/>
  <path id="Caminho_41221" data-name="Caminho 41221" d="M13,24A11,11,0,1,1,24,13,11,11,0,0,1,13,24Zm0-2.2A8.8,8.8,0,1,0,4.2,13,8.8,8.8,0,0,0,13,21.8ZM9.15,15.2H15.2a.55.55,0,0,0,0-1.1H10.8a2.75,2.75,0,0,1,0-5.5h1.1V6.4h2.2V8.6h2.75v2.2H10.8a.55.55,0,1,0,0,1.1h4.4a2.75,2.75,0,0,1,0,5.5H14.1v2.2H11.9V17.4H9.15Z" transform="translate(0 0)" fill="#a61731"/>
</svg>
