<svg xmlns="http://www.w3.org/2000/svg" xmlns:xlink="http://www.w3.org/1999/xlink" width="145" height="134" viewBox="0 0 145 134">
  <defs>
    <clipPath id="clip-path">
      <rect id="Retângulo_73" data-name="Retângulo 73" width="145" height="134" transform="translate(213 109)" fill="none" stroke="#f20f38" stroke-width="1"/>
    </clipPath>
  </defs>
  <g id="NOTRE_DAME" data-name="NOTRE DAME" transform="translate(-213 -109)" clip-path="url(#clip-path)">
    <g id="notre-dame" transform="translate(203.114 93.611)">
      <path id="Caminho_169" data-name="Caminho 169" d="M148.3,88.45A65.909,65.909,0,1,0,22.343,115.637H142.43A65.711,65.711,0,0,0,148.3,88.45Z" fill="#f9f2f3"/>
      <line id="Linha_77" data-name="Linha 77" x2="128.523" transform="translate(18.125 115.637)" fill="none" stroke="#f20f38" stroke-linecap="round" stroke-linejoin="round" stroke-width="1.648"/>
      <line id="Linha_78" data-name="Linha 78" x2="4.119" transform="translate(10.71 115.637)" fill="none" stroke="#f20f38" stroke-linecap="round" stroke-linejoin="round" stroke-width="1.648"/>
      <line id="Linha_79" data-name="Linha 79" x2="4.119" transform="translate(149.943 115.637)" fill="none" stroke="#f20f38" stroke-linecap="round" stroke-linejoin="round" stroke-width="1.648"/>
      <path id="Caminho_170" data-name="Caminho 170" d="M105.669,71.857,111.584,82.7a8.239,8.239,0,0,1,1.005,3.955v19.773l1.335,1.351a3.3,3.3,0,0,1,.972,2.323v5.553h-9.227Z" fill="#f9f2f3" stroke="#f20f38" stroke-linecap="round" stroke-linejoin="round" stroke-width="1.648"/>
      <line id="Linha_80" data-name="Linha 80" x2="5.767" transform="translate(107.976 102.999)" fill="none" stroke="#f20f38" stroke-linecap="round" stroke-linejoin="round" stroke-width="1.648"/>
      <path id="Caminho_171" data-name="Caminho 171" d="M45.691,71.857,39.776,82.7a8.239,8.239,0,0,0-1.005,3.955v19.773l-1.351,1.351a3.3,3.3,0,0,0-.956,2.323v5.553h9.227Z" fill="#f9f2f3" stroke="#f20f38" stroke-linecap="round" stroke-linejoin="round" stroke-width="1.648"/>
      <path id="Caminho_172" data-name="Caminho 172" d="M130.17,36.827a2.521,2.521,0,0,0-.989.2,4.6,4.6,0,0,0-9.1,0,2.521,2.521,0,0,0-.989-.2,2.768,2.768,0,0,0,0,5.536H130.17a2.768,2.768,0,0,0,0-5.536Z" fill="#f9f2f3"/>
      <path id="Caminho_173" data-name="Caminho 173" d="M130.17,36.827a2.521,2.521,0,0,0-.989.2,4.6,4.6,0,0,0-9.1,0,2.521,2.521,0,0,0-.989-.2,2.768,2.768,0,0,0,0,5.536H130.17a2.768,2.768,0,0,0,0-5.536Z" fill="none" stroke="#f20f38" stroke-linejoin="round" stroke-width="1.648"/>
      <path id="Caminho_174" data-name="Caminho 174" d="M87.214,28.028V56.863H64.146V28.028H43.385V103l1.153,1.153v4.614l-1.153,1.153v5.767h64.591v-6.92l-1.153-1.153v-3.46L107.976,103V28.028Z" fill="#f9f2f3"/>
      <path id="Caminho_175" data-name="Caminho 175" d="M130.17,36.827a2.521,2.521,0,0,0-.989.2,4.6,4.6,0,0,0-9.1,0,2.521,2.521,0,0,0-.989-.2,2.768,2.768,0,0,0,0,5.536H130.17a2.768,2.768,0,0,0,0-5.536Z" fill="none" stroke="#f20f38" stroke-linejoin="round" stroke-width="1.648"/>
      <path id="Caminho_176" data-name="Caminho 176" d="M87.214,28.028V56.863H64.146V28.028H43.385V103l1.153,1.153v4.614l-1.153,1.153v5.767h64.591v-6.92l-1.153-1.153v-3.46L107.976,103V28.028Z" fill="none" stroke="#f20f38" stroke-linecap="round" stroke-linejoin="round" stroke-width="1.648"/>
      <rect id="Retângulo_74" data-name="Retângulo 74" width="64.591" height="6.92" transform="translate(43.385 86.852)" fill="#f9f2f3" stroke="#f20f38" stroke-linecap="round" stroke-linejoin="round" stroke-width="1.648"/>
      <path id="Caminho_177" data-name="Caminho 177" d="M109.211,56.863H42.132a.577.577,0,0,0-.478.89h0A10.249,10.249,0,0,1,43.3,63.421V66.09h64.591V63.421a10.232,10.232,0,0,1,1.648-5.668h0a.577.577,0,0,0-.33-.89Z" fill="#f9f2f3" stroke="#f20f38" stroke-linecap="round" stroke-linejoin="round" stroke-width="1.648"/>
      <path id="Caminho_178" data-name="Caminho 178" d="M75.68,98.386h0a9.178,9.178,0,0,0-5.767,8.519v8.782H81.447V106.9a9.211,9.211,0,0,0-5.767-8.519Z" fill="#f9f2f3" stroke="#f20f38" stroke-linecap="round" stroke-linejoin="round" stroke-width="1.648"/>
      <path id="Caminho_179" data-name="Caminho 179" d="M53.765,100.693h0a9.392,9.392,0,0,0-4.614,8.519v6.476h9.227v-6.476a9.425,9.425,0,0,0-4.614-8.519Z" fill="#f9f2f3" stroke="#f20f38" stroke-linecap="round" stroke-linejoin="round" stroke-width="1.648"/>
      <path id="Caminho_180" data-name="Caminho 180" d="M53.765,71.857h0a9.392,9.392,0,0,0-4.614,8.519v6.476h9.227V80.376A9.425,9.425,0,0,0,53.765,71.857Z" fill="#f9f2f3" stroke="#f20f38" stroke-linecap="round" stroke-linejoin="round" stroke-width="1.648"/>
      <path id="Caminho_181" data-name="Caminho 181" d="M97.595,71.857h0a9.392,9.392,0,0,0-4.614,8.519v6.476h9.178V80.376a9.425,9.425,0,0,0-4.564-8.519Z" fill="#f9f2f3" stroke="#f20f38" stroke-linecap="round" stroke-linejoin="round" stroke-width="1.648"/>
      <path id="Caminho_182" data-name="Caminho 182" d="M97.595,100.693h0a9.392,9.392,0,0,0-4.614,8.519v6.476h9.178v-6.476a9.425,9.425,0,0,0-4.564-8.519Z" fill="#f9f2f3" stroke="#f20f38" stroke-linecap="round" stroke-linejoin="round" stroke-width="1.648"/>
      <line id="Linha_81" data-name="Linha 81" y2="14.994" transform="translate(64.146 86.852)" fill="none" stroke="#f20f38" stroke-linecap="round" stroke-linejoin="round" stroke-width="1.648"/>
      <line id="Linha_82" data-name="Linha 82" y2="14.994" transform="translate(87.214 86.852)" fill="none" stroke="#f20f38" stroke-linecap="round" stroke-linejoin="round" stroke-width="1.648"/>
      <line id="Linha_83" data-name="Linha 83" y2="5.767" transform="translate(64.146 66.09)" fill="none" stroke="#f20f38" stroke-linecap="round" stroke-linejoin="round" stroke-width="1.648"/>
      <line id="Linha_84" data-name="Linha 84" y2="5.767" transform="translate(87.214 66.09)" fill="none" stroke="#f20f38" stroke-linecap="round" stroke-linejoin="round" stroke-width="1.648"/>
      <path id="Caminho_183" data-name="Caminho 183" d="M75.68,69.551h0a9.227,9.227,0,0,0-9.227,9.227v8.074H84.907V78.778A9.227,9.227,0,0,0,75.68,69.551Z" fill="#f9f2f3" stroke="#f20f38" stroke-linecap="round" stroke-linejoin="round" stroke-width="1.648"/>
      <circle id="Elipse_33" data-name="Elipse 33" cx="5.767" cy="5.767" r="5.767" transform="translate(69.913 73.011)" fill="#f9f2f3"/>
      <path id="Caminho_184" data-name="Caminho 184" d="M79.8,74.774a5.685,5.685,0,0,0-4.119-1.763A5.751,5.751,0,0,0,74.032,84.3Z" fill="#f9f2f3"/>
      <circle id="Elipse_34" data-name="Elipse 34" cx="5.767" cy="5.767" r="5.767" transform="translate(69.913 73.011)" fill="none" stroke="#f20f38" stroke-linecap="round" stroke-linejoin="round" stroke-width="1.648"/>
      <line id="Linha_85" data-name="Linha 85" y2="2.307" transform="translate(64.146 105.306)" fill="none" stroke="#f20f38" stroke-linecap="round" stroke-linejoin="round" stroke-width="1.648"/>
      <line id="Linha_86" data-name="Linha 86" y2="2.307" transform="translate(87.214 105.306)" fill="none" stroke="#f20f38" stroke-linecap="round" stroke-linejoin="round" stroke-width="1.648"/>
      <line id="Linha_87" data-name="Linha 87" y1="6.92" transform="translate(53.765 86.852)" fill="none" stroke="#f20f38" stroke-linecap="round" stroke-linejoin="round" stroke-width="1.648"/>
      <line id="Linha_88" data-name="Linha 88" y1="3.46" transform="translate(47.998 90.312)" fill="none" stroke="#f20f38" stroke-linecap="round" stroke-linejoin="round" stroke-width="1.648"/>
      <line id="Linha_89" data-name="Linha 89" y1="3.46" transform="translate(59.532 90.312)" fill="none" stroke="#f20f38" stroke-linecap="round" stroke-linejoin="round" stroke-width="1.648"/>
      <line id="Linha_90" data-name="Linha 90" y1="6.92" transform="translate(75.68 86.852)" fill="none" stroke="#f20f38" stroke-linecap="round" stroke-linejoin="round" stroke-width="1.648"/>
      <line id="Linha_91" data-name="Linha 91" y1="3.46" transform="translate(69.913 90.312)" fill="none" stroke="#f20f38" stroke-linecap="round" stroke-linejoin="round" stroke-width="1.648"/>
      <line id="Linha_92" data-name="Linha 92" y1="3.46" transform="translate(81.447 90.312)" fill="none" stroke="#f20f38" stroke-linecap="round" stroke-linejoin="round" stroke-width="1.648"/>
      <line id="Linha_93" data-name="Linha 93" y1="6.92" transform="translate(97.595 86.852)" fill="none" stroke="#f20f38" stroke-linecap="round" stroke-linejoin="round" stroke-width="1.648"/>
      <line id="Linha_94" data-name="Linha 94" y1="3.46" transform="translate(91.828 90.312)" fill="none" stroke="#f20f38" stroke-linecap="round" stroke-linejoin="round" stroke-width="1.648"/>
      <line id="Linha_95" data-name="Linha 95" y1="3.46" transform="translate(103.362 90.312)" fill="none" stroke="#f20f38" stroke-linecap="round" stroke-linejoin="round" stroke-width="1.648"/>
      <path id="Caminho_185" data-name="Caminho 185" d="M52.447,59.005l-.989-.989-.989.989a4.482,4.482,0,0,0-1.318,3.2V66.09h4.614V62.2a4.548,4.548,0,0,0-1.318-3.2Z" fill="#f9f2f3" stroke="#f20f38" stroke-linecap="round" stroke-linejoin="round" stroke-width="1.648"/>
      <path id="Caminho_186" data-name="Caminho 186" d="M64.558,59.005l-.989-.989-.989.989a4.482,4.482,0,0,0-1.318,3.2V66.09h4.647V62.2a4.548,4.548,0,0,0-1.351-3.2Z" fill="#f9f2f3" stroke="#f20f38" stroke-linecap="round" stroke-linejoin="round" stroke-width="1.648"/>
      <path id="Caminho_187" data-name="Caminho 187" d="M76.669,59.005l-.989-.989-.989.989a4.482,4.482,0,0,0-1.318,3.2V66.09h4.614V62.2A4.548,4.548,0,0,0,76.669,59.005Z" fill="#f9f2f3" stroke="#f20f38" stroke-linecap="round" stroke-linejoin="round" stroke-width="1.648"/>
      <path id="Caminho_188" data-name="Caminho 188" d="M88.78,59.005l-.989-.989-.989.989a4.482,4.482,0,0,0-1.318,3.2V66.09H90.1V62.2A4.548,4.548,0,0,0,88.78,59.005Z" fill="#f9f2f3" stroke="#f20f38" stroke-linecap="round" stroke-linejoin="round" stroke-width="1.648"/>
      <path id="Caminho_189" data-name="Caminho 189" d="M98.864,59.005l.989-.989.989.989a4.548,4.548,0,0,1,1.318,3.2V66.09H97.545V62.2a4.482,4.482,0,0,1,1.318-3.2Z" fill="#f9f2f3" stroke="#f20f38" stroke-linecap="round" stroke-linejoin="round" stroke-width="1.648"/>
      <line id="Linha_96" data-name="Linha 96" y2="2.307" transform="translate(58.379 56.863)" fill="none" stroke="#f20f38" stroke-linecap="round" stroke-linejoin="round" stroke-width="1.648"/>
      <line id="Linha_97" data-name="Linha 97" y2="2.307" transform="translate(46.845 56.863)" fill="none" stroke="#f20f38" stroke-linecap="round" stroke-linejoin="round" stroke-width="1.648"/>
      <line id="Linha_98" data-name="Linha 98" y2="2.307" transform="translate(69.913 56.863)" fill="none" stroke="#f20f38" stroke-linecap="round" stroke-linejoin="round" stroke-width="1.648"/>
      <line id="Linha_99" data-name="Linha 99" y2="2.307" transform="translate(81.447 56.863)" fill="none" stroke="#f20f38" stroke-linecap="round" stroke-linejoin="round" stroke-width="1.648"/>
      <line id="Linha_100" data-name="Linha 100" y2="2.307" transform="translate(92.981 56.863)" fill="none" stroke="#f20f38" stroke-linecap="round" stroke-linejoin="round" stroke-width="1.648"/>
      <line id="Linha_101" data-name="Linha 101" y2="2.307" transform="translate(104.515 56.863)" fill="none" stroke="#f20f38" stroke-linecap="round" stroke-linejoin="round" stroke-width="1.648"/>
      <path id="Caminho_190" data-name="Caminho 190" d="M75.037,107.613h1.318A1.648,1.648,0,0,1,78,109.261v6.426H73.39v-6.426A1.648,1.648,0,0,1,75.037,107.613Z" fill="#f9f2f3"/>
      <path id="Caminho_191" data-name="Caminho 191" d="M76.356,107.613H75.037a1.648,1.648,0,0,0-1.648,1.648v6.426h.33L77.9,108.75A1.648,1.648,0,0,0,76.356,107.613Z" fill="#f9f2f3"/>
      <path id="Caminho_192" data-name="Caminho 192" d="M75.037,107.613h1.318A1.648,1.648,0,0,1,78,109.261v6.426H73.39v-6.426A1.648,1.648,0,0,1,75.037,107.613Z" fill="none" stroke="#f20f38" stroke-linecap="round" stroke-linejoin="round" stroke-width="1.648"/>
      <path id="Caminho_193" data-name="Caminho 193" d="M49.152,37.255h0a7.876,7.876,0,0,0-2.307,5.586V56.88h4.614V42.841A7.959,7.959,0,0,0,49.152,37.255Z" fill="#f9f2f3"/>
      <path id="Caminho_194" data-name="Caminho 194" d="M51.459,45V42.841a7.959,7.959,0,0,0-2.307-5.569h0a7.876,7.876,0,0,0-2.307,5.569v9.886Z" fill="#f9f2f3"/>
      <path id="Caminho_195" data-name="Caminho 195" d="M49.152,37.255h0a7.876,7.876,0,0,0-2.307,5.586V56.88h4.614V42.841A7.959,7.959,0,0,0,49.152,37.255Z" fill="none" stroke="#f20f38" stroke-linecap="round" stroke-linejoin="round" stroke-width="1.648"/>
      <path id="Caminho_196" data-name="Caminho 196" d="M58.379,37.255h0a7.876,7.876,0,0,0-2.356,5.586V56.88h4.614V42.841A7.959,7.959,0,0,0,58.379,37.255Z" fill="#f9f2f3"/>
      <path id="Caminho_197" data-name="Caminho 197" d="M60.686,45V42.841a7.959,7.959,0,0,0-2.307-5.569h0a7.876,7.876,0,0,0-2.356,5.569v9.886Z" fill="#f9f2f3"/>
      <path id="Caminho_198" data-name="Caminho 198" d="M58.379,37.255h0a7.876,7.876,0,0,0-2.356,5.586V56.88h4.614V42.841A7.959,7.959,0,0,0,58.379,37.255Z" fill="none" stroke="#f20f38" stroke-linecap="round" stroke-linejoin="round" stroke-width="1.648"/>
      <path id="Caminho_199" data-name="Caminho 199" d="M92.981,37.255h0a7.876,7.876,0,0,0-2.356,5.586V56.88h4.614V42.841a7.958,7.958,0,0,0-2.257-5.586Z" fill="#f9f2f3"/>
      <path id="Caminho_200" data-name="Caminho 200" d="M95.288,45V42.841a7.959,7.959,0,0,0-2.307-5.569h0a7.876,7.876,0,0,0-2.356,5.569v9.886Z" fill="#f9f2f3"/>
      <path id="Caminho_201" data-name="Caminho 201" d="M92.981,37.255h0a7.876,7.876,0,0,0-2.356,5.586V56.88h4.614V42.841a7.958,7.958,0,0,0-2.257-5.586Z" fill="none" stroke="#f20f38" stroke-linecap="round" stroke-linejoin="round" stroke-width="1.648"/>
      <path id="Caminho_202" data-name="Caminho 202" d="M102.159,37.255h0A7.876,7.876,0,0,0,99.9,42.841V56.88h4.614V42.841A7.959,7.959,0,0,0,102.159,37.255Z" fill="#f9f2f3"/>
      <path id="Caminho_203" data-name="Caminho 203" d="M104.515,45V42.841a7.959,7.959,0,0,0-2.356-5.586h0A7.876,7.876,0,0,0,99.9,42.841v9.886Z" fill="#f9f2f3"/>
      <path id="Caminho_204" data-name="Caminho 204" d="M102.159,37.255h0A7.876,7.876,0,0,0,99.9,42.841V56.88h4.614V42.841A7.959,7.959,0,0,0,102.159,37.255Z" fill="none" stroke="#f20f38" stroke-linecap="round" stroke-linejoin="round" stroke-width="1.648"/>
      <line id="Linha_102" data-name="Linha 102" x2="23.068" transform="translate(42.231 32.641)" fill="none" stroke="#f20f38" stroke-linecap="round" stroke-linejoin="round" stroke-width="1.648"/>
      <line id="Linha_103" data-name="Linha 103" x2="23.068" transform="translate(42.231 28.028)" fill="none" stroke="#f20f38" stroke-linecap="round" stroke-linejoin="round" stroke-width="1.648"/>
      <line id="Linha_104" data-name="Linha 104" x2="23.068" transform="translate(86.061 32.641)" fill="none" stroke="#f20f38" stroke-linecap="round" stroke-linejoin="round" stroke-width="1.648"/>
      <line id="Linha_105" data-name="Linha 105" x2="23.068" transform="translate(86.061 28.028)" fill="none" stroke="#f20f38" stroke-linecap="round" stroke-linejoin="round" stroke-width="1.648"/>
      <line id="Linha_106" data-name="Linha 106" x2="66.898" transform="translate(42.231 66.09)" fill="none" stroke="#f20f38" stroke-linecap="round" stroke-linejoin="round" stroke-width="1.648"/>
      <line id="Linha_107" data-name="Linha 107" x2="76.125" transform="translate(37.618 86.852)" fill="none" stroke="#f20f38" stroke-linecap="round" stroke-linejoin="round" stroke-width="1.648"/>
      <line id="Linha_108" data-name="Linha 108" x1="5.767" transform="translate(37.618 102.999)" fill="none" stroke="#f20f38" stroke-linecap="round" stroke-linejoin="round" stroke-width="1.648"/>
      <rect id="Retângulo_75" data-name="Retângulo 75" width="20.761" height="4.614" transform="translate(43.385 28.028)" fill="#f9f2f3" stroke="#f20f38" stroke-linecap="round" stroke-linejoin="round" stroke-width="1.648"/>
      <rect id="Retângulo_76" data-name="Retângulo 76" width="20.761" height="4.614" transform="translate(87.214 28.028)" fill="#f9f2f3" stroke="#f20f38" stroke-linecap="round" stroke-linejoin="round" stroke-width="1.648"/>
      <line id="Linha_109" data-name="Linha 109" y2="11.534" transform="translate(75.68 73.011)" fill="none" stroke="#f20f38" stroke-linecap="round" stroke-linejoin="round" stroke-width="1.648"/>
      <line id="Linha_110" data-name="Linha 110" x2="11.534" transform="translate(69.913 78.778)" fill="none" stroke="#f20f38" stroke-linecap="round" stroke-linejoin="round" stroke-width="1.648"/>
      <rect id="Retângulo_77" data-name="Retângulo 77" width="9.227" height="6.92" transform="translate(49.152 79.931)" fill="#f9f2f3"/>
      <path id="Caminho_205" data-name="Caminho 205" d="M49.152,79.931v6.92h3.46l4.152-6.92Z" fill="#f9f2f3"/>
      <rect id="Retângulo_78" data-name="Retângulo 78" width="9.227" height="6.92" transform="translate(49.152 79.931)" fill="none" stroke="#f20f38" stroke-linecap="round" stroke-linejoin="round" stroke-width="1.648"/>
      <rect id="Retângulo_79" data-name="Retângulo 79" width="9.227" height="6.92" transform="translate(92.981 79.931)" fill="#f9f2f3"/>
      <path id="Caminho_206" data-name="Caminho 206" d="M92.981,79.931v6.92h3.46l4.152-6.92Z" fill="#f9f2f3"/>
      <rect id="Retângulo_80" data-name="Retângulo 80" width="9.227" height="6.92" transform="translate(92.981 79.931)" fill="none" stroke="#f20f38" stroke-linecap="round" stroke-linejoin="round" stroke-width="1.648"/>
      <rect id="Retângulo_81" data-name="Retângulo 81" width="9.227" height="6.92" transform="translate(49.152 108.766)" fill="#f9f2f3"/>
      <path id="Caminho_207" data-name="Caminho 207" d="M49.152,108.766v6.92h3.46l4.152-6.92Z" fill="#f9f2f3"/>
      <rect id="Retângulo_82" data-name="Retângulo 82" width="9.227" height="6.92" transform="translate(49.152 108.766)" fill="none" stroke="#f20f38" stroke-linecap="round" stroke-linejoin="round" stroke-width="1.648"/>
      <rect id="Retângulo_83" data-name="Retângulo 83" width="9.227" height="6.92" transform="translate(92.981 108.766)" fill="#f9f2f3"/>
      <path id="Caminho_208" data-name="Caminho 208" d="M92.981,108.766v6.92h3.46l4.152-6.92Z" fill="#f9f2f3"/>
      <rect id="Retângulo_84" data-name="Retângulo 84" width="9.227" height="6.92" transform="translate(92.981 108.766)" fill="none" stroke="#f20f38" stroke-linecap="round" stroke-linejoin="round" stroke-width="1.648"/>
      <path id="Caminho_209" data-name="Caminho 209" d="M130.17,102.6c0,3.823-1.368,7.135-2.9,7.135s-2.9-3.3-2.9-7.135,2.9-13.89,2.9-13.89S130.17,98.765,130.17,102.6Z" fill="#f9f2f3" stroke="#f20f38" stroke-linecap="round" stroke-linejoin="round" stroke-width="1.648"/>
      <line id="Linha_111" data-name="Linha 111" y2="5.948" transform="translate(127.32 109.739)" fill="none" stroke="#f20f38" stroke-linecap="round" stroke-linejoin="round" stroke-width="1.648"/>
      <path id="Caminho_210" data-name="Caminho 210" d="M28.341,92.273a4.515,4.515,0,0,1-9.013,0" fill="none" stroke="#f20f38" stroke-linecap="round" stroke-linejoin="round" stroke-width="1.648"/>
      <path id="Caminho_211" data-name="Caminho 211" d="M21.009,90.625h-3.3a.873.873,0,0,1-.527-.2.692.692,0,0,0,0,.264l.33,2.455a.84.84,0,0,0,.824.709h2.126a.807.807,0,0,0,.807-.709l.33-2.455a.692.692,0,0,0,0-.264.791.791,0,0,1-.593.2Z" fill="#f9f2f3" stroke="#f20f38" stroke-linecap="round" stroke-linejoin="round" stroke-width="1.648"/>
      <path id="Caminho_212" data-name="Caminho 212" d="M19.328,87.066a2.5,2.5,0,0,0-2.488,2.5c0,.725.363,1.022.824,1.022h3.3c.461,0,.824-.3.824-1.022a2.5,2.5,0,0,0-2.456-2.5Z" fill="#f9f2f3" stroke="#f20f38" stroke-linecap="round" stroke-linejoin="round" stroke-width="1.648"/>
      <path id="Caminho_213" data-name="Caminho 213" d="M30.022,90.625h-3.3a.791.791,0,0,1-.511-.2,1.285,1.285,0,0,0,0,.264l.33,2.455a.84.84,0,0,0,.824.709h2.126a.807.807,0,0,0,.807-.709l.264-2.521a1.285,1.285,0,0,0,0-.264.791.791,0,0,1-.544.264Z" fill="#f9f2f3" stroke="#f20f38" stroke-linecap="round" stroke-linejoin="round" stroke-width="1.648"/>
      <path id="Caminho_214" data-name="Caminho 214" d="M28.341,87.066a2.5,2.5,0,0,0-2.488,2.5c0,.725.362,1.022.824,1.022h3.3c.461,0,.824-.3.824-1.022a2.5,2.5,0,0,0-2.456-2.5Z" fill="#f9f2f3" stroke="#f20f38" stroke-linecap="round" stroke-linejoin="round" stroke-width="1.648"/>
      <line id="Linha_112" data-name="Linha 112" y2="18.932" transform="translate(23.843 96.755)" fill="none" stroke="#f20f38" stroke-linecap="round" stroke-linejoin="round" stroke-width="1.648"/>
      <ellipse id="Elipse_35" data-name="Elipse 35" cx="22.244" cy="2.472" rx="22.244" ry="2.472" transform="translate(32.081 137.289)" fill="#f9f2f3"/>
      <path id="Caminho_215" data-name="Caminho 215" d="M62.943,113.1v5.8H35.393a1.648,1.648,0,0,0-1.648,1.648v13.544a1.648,1.648,0,0,0,1.4,1.648l3.938.61H72.368a1.648,1.648,0,0,0,1.648-1.648v-12.77a24.715,24.715,0,0,0-.247-3.493l-.593-4.1a3.3,3.3,0,0,0-3.3-2.834H64.591A1.648,1.648,0,0,0,62.943,113.1Z" fill="#f9f2f3" stroke="#f20f38" stroke-linecap="round" stroke-linejoin="round" stroke-width="1.648"/>
      <path id="Caminho_216" data-name="Caminho 216" d="M45.856,136.333a3.015,3.015,0,1,1-3.015-3.015,3.015,3.015,0,0,1,3.015,3.015Z" fill="#f9f2f3" stroke="#f20f38" stroke-linecap="round" stroke-linejoin="round" stroke-width="1.648"/>
      <path id="Caminho_217" data-name="Caminho 217" d="M67.441,136.333a3.015,3.015,0,1,1-3.015-3.015A3.015,3.015,0,0,1,67.441,136.333Z" fill="#f9f2f3" stroke="#f20f38" stroke-linecap="round" stroke-linejoin="round" stroke-width="1.648"/>
      <rect id="Retângulo_85" data-name="Retângulo 85" width="5.767" height="10.924" transform="translate(49.86 125.409)" fill="#f9f2f3" stroke="#f20f38" stroke-linecap="round" stroke-linejoin="round" stroke-width="1.648"/>
      <rect id="Retângulo_86" data-name="Retângulo 86" width="9.095" height="5.009" transform="translate(37.436 125.409)" fill="#f9f2f3"/>
      <rect id="Retângulo_87" data-name="Retângulo 87" width="9.095" height="5.009" transform="translate(37.436 125.409)" fill="none" stroke="#f20f38" stroke-linecap="round" stroke-linejoin="round" stroke-width="1.648"/>
      <rect id="Retângulo_88" data-name="Retângulo 88" width="5.767" height="5.009" transform="translate(58.89 125.409)" fill="#f9f2f3"/>
      <rect id="Retângulo_89" data-name="Retângulo 89" width="5.767" height="5.009" transform="translate(58.89 125.409)" fill="none" stroke="#f20f38" stroke-linecap="round" stroke-linejoin="round" stroke-width="1.648"/>
      <rect id="Retângulo_90" data-name="Retângulo 90" width="5.767" height="5.009" transform="translate(68.249 125.409)" fill="#f9f2f3"/>
      <rect id="Retângulo_91" data-name="Retângulo 91" width="5.767" height="5.009" transform="translate(68.249 125.409)" fill="none" stroke="#f20f38" stroke-linecap="round" stroke-linejoin="round" stroke-width="1.648"/>
      <path id="Caminho_218" data-name="Caminho 218" d="M68.15,119.015h5.685l-.577-4.086H68.15a1.648,1.648,0,0,0-1.648,1.648v.824a1.648,1.648,0,0,0,1.648,1.615Z" fill="#f9f2f3"/>
      <path id="Caminho_219" data-name="Caminho 219" d="M68.15,119.015h5.685l-.577-4.086H68.15a1.648,1.648,0,0,0-1.648,1.648v.824a1.648,1.648,0,0,0,1.648,1.615Z" fill="none" stroke="#f20f38" stroke-linecap="round" stroke-linejoin="round" stroke-width="1.648"/>
      <path id="Caminho_220" data-name="Caminho 220" d="M37.634,115.687H62.943V118.9H35.986v-1.565A1.648,1.648,0,0,1,37.634,115.687Z" fill="none" stroke="#f20f38" stroke-linecap="round" stroke-linejoin="round" stroke-width="1.648"/>
      <rect id="Retângulo_92" data-name="Retângulo 92" width="3.839" height="3.213" transform="translate(40.584 115.687)" fill="none" stroke="#f20f38" stroke-linecap="round" stroke-linejoin="round" stroke-width="1.648"/>
      <rect id="Retângulo_93" data-name="Retângulo 93" width="3.839" height="3.213" transform="translate(48.064 115.687)" fill="none" stroke="#f20f38" stroke-linecap="round" stroke-linejoin="round" stroke-width="1.648"/>
      <rect id="Retângulo_94" data-name="Retângulo 94" width="3.839" height="3.213" transform="translate(55.627 115.687)" fill="none" stroke="#f20f38" stroke-linecap="round" stroke-linejoin="round" stroke-width="1.648"/>
      <rect id="Retângulo_95" data-name="Retângulo 95" width="5.767" height="5.009" transform="translate(49.86 125.409)" fill="#f9f2f3" stroke="#f20f38" stroke-linecap="round" stroke-linejoin="round" stroke-width="1.648"/>
      <line id="Linha_113" data-name="Linha 113" x2="32.872" transform="translate(37.749 122.162)" fill="none" stroke="#f20f38" stroke-linecap="round" stroke-linejoin="round" stroke-width="1.648"/>
    </g>
  </g>
</svg>
