<svg id="Grupo_38674" data-name="Grupo 38674" xmlns="http://www.w3.org/2000/svg" width="28" height="28" viewBox="0 0 28 28">
  <g id="Icons-56_market_outline_56" data-name="Icons-56/market_outline_56">
    <g id="market_outline_56">
      <rect id="Retângulo_1030" data-name="Retângulo 1030" width="28" height="28" fill="none"/>
      <path id="Combined-Shape" d="M14,3a5,5,0,0,1,5,5h1.3a3.625,3.625,0,0,1,1.926.334,2.272,2.272,0,0,1,.945.945A3.625,3.625,0,0,1,23.5,11.2V18.09c0,2.229-.232,3.037-.668,3.852a4.543,4.543,0,0,1-1.89,1.89c-.815.436-1.623.668-3.852.668H10.91c-2.229,0-3.037-.232-3.852-.668a4.543,4.543,0,0,1-1.89-1.89c-.436-.815-.668-1.623-.668-3.852V11.2a3.625,3.625,0,0,1,.334-1.926,2.272,2.272,0,0,1,.945-.945A3.625,3.625,0,0,1,7.7,8H9A5,5,0,0,1,14,3Zm6.415,6.5H7.7a2.417,2.417,0,0,0-1.219.157.772.772,0,0,0-.33.33A2.176,2.176,0,0,0,6,11.085V18.09a6.059,6.059,0,0,0,.491,3.144,3.043,3.043,0,0,0,1.275,1.275A6.06,6.06,0,0,0,10.91,23H17.09a6.06,6.06,0,0,0,3.144-.491,3.043,3.043,0,0,0,1.275-1.275A6.06,6.06,0,0,0,22,18.09V11.2a2.417,2.417,0,0,0-.157-1.219.772.772,0,0,0-.33-.33A2.176,2.176,0,0,0,20.415,9.5ZM9.771,11a.815.815,0,0,1,.4.087.591.591,0,0,1,.246.246.815.815,0,0,1,.087.4v.043a.815.815,0,0,1-.087.4.591.591,0,0,1-.246.246.815.815,0,0,1-.4.087H9.729a.815.815,0,0,1-.4-.087.591.591,0,0,1-.246-.246.815.815,0,0,1-.087-.4v-.043a.815.815,0,0,1,.087-.4.591.591,0,0,1,.246-.246.815.815,0,0,1,.4-.087Zm8.5,0a.815.815,0,0,1,.4.087.591.591,0,0,1,.246.246.815.815,0,0,1,.087.4v.043a.815.815,0,0,1-.087.4.591.591,0,0,1-.246.246.815.815,0,0,1-.4.087h-.043a.815.815,0,0,1-.4-.087.591.591,0,0,1-.246-.246.815.815,0,0,1-.087-.4v-.043a.815.815,0,0,1,.087-.4.591.591,0,0,1,.246-.246.815.815,0,0,1,.4-.087ZM14,4.5A3.5,3.5,0,0,0,10.5,8h7A3.5,3.5,0,0,0,14,4.5Z" fill="#a61731"/>
    </g>
  </g>
</svg>
