<svg xmlns="http://www.w3.org/2000/svg" xmlns:xlink="http://www.w3.org/1999/xlink" width="30" height="30" viewBox="0 0 30 30">
  <defs>
    <clipPath id="clip-path">
      <rect id="Ret칙ngulo_1019" data-name="Ret칙ngulo 1019" width="30" height="30" rx="8" transform="translate(0 4)" fill="#a61731"/>
    </clipPath>
  </defs>
  <g id="icon" transform="translate(0 -4)">
    <g id="Grupo_de_m치scara_100" data-name="Grupo de m치scara 100" clip-path="url(#clip-path)">
      <g id="cake" transform="translate(0 4)">
        <g id="Grupo_38662" data-name="Grupo 38662">
          <g id="Grupo_38661" data-name="Grupo 38661">
            <path id="Caminho_41388" data-name="Caminho 41388" d="M14.993,8.182A2.728,2.728,0,0,0,17.332,4.05L14.993,0,12.655,4.05a2.728,2.728,0,0,0,2.339,4.132Z" fill="#a61731"/>
            <path id="Caminho_41389" data-name="Caminho 41389" d="M23.175,12.273H16.357V9.545H13.63v2.727H6.811A4.094,4.094,0,0,0,2.72,16.364v2.1a2.671,2.671,0,0,0,4.561,1.889L10.2,17.441l2.911,2.9a2.735,2.735,0,0,0,3.777,0l2.918-2.9,2.911,2.9a2.671,2.671,0,0,0,4.561-1.889V16.364A4.115,4.115,0,0,0,23.175,12.273Z" fill="#a61731"/>
            <path id="Caminho_41390" data-name="Caminho 41390" d="M21.259,21.8h0l-1.466-1.466L18.321,21.8a4.832,4.832,0,0,1-6.668,0l-1.466-1.466L8.714,21.8a4.623,4.623,0,0,1-3.32,1.384,4.708,4.708,0,0,1-2.673-.839v6.293A1.368,1.368,0,0,0,4.084,30H25.9a1.368,1.368,0,0,0,1.364-1.364V22.343a4.695,4.695,0,0,1-6.007-.545Z" fill="#a61731"/>
          </g>
        </g>
      </g>
    </g>
  </g>
</svg>
