<svg xmlns="http://www.w3.org/2000/svg" width="240" height="12" viewBox="0 0 240 12">
  <g id="Grupo_38664" data-name="Grupo 38664" transform="translate(-68.5 -178)">
    <g id="Caminho_230" data-name="Caminho 230" transform="translate(68.5 178)" fill="#f20f38">
      <path d="M 6 11 C 3.242990016937256 11 1 8.757010459899902 1 6 C 1 3.242990016937256 3.242990016937256 1 6 1 C 8.757010459899902 1 11 3.242990016937256 11 6 C 11 8.757010459899902 8.757010459899902 11 6 11 Z" stroke="none"/>
      <path d="M 6 2 C 3.794389724731445 2 2 3.794389724731445 2 6 C 2 8.205610275268555 3.794389724731445 10 6 10 C 8.205610275268555 10 10 8.205610275268555 10 6 C 10 3.794389724731445 8.205610275268555 2 6 2 M 6 0 C 9.31371021270752 0 12 2.68628978729248 12 6 C 12 9.31371021270752 9.31371021270752 12 6 12 C 2.68628978729248 12 0 9.31371021270752 0 6 C 0 2.68628978729248 2.68628978729248 0 6 0 Z" stroke="none" fill="#f20f38"/>
    </g>
    <g id="Caminho_230-2" data-name="Caminho 230" transform="translate(296.5 178)" fill="#f20f38">
      <path d="M 6 11 C 3.242990016937256 11 1 8.757010459899902 1 6 C 1 3.242990016937256 3.242990016937256 1 6 1 C 8.757010459899902 1 11 3.242990016937256 11 6 C 11 8.757010459899902 8.757010459899902 11 6 11 Z" stroke="none"/>
      <path d="M 6 2 C 3.794389724731445 2 2 3.794389724731445 2 6 C 2 8.205610275268555 3.794389724731445 10 6 10 C 8.205610275268555 10 10 8.205610275268555 10 6 C 10 3.794389724731445 8.205610275268555 2 6 2 M 6 0 C 9.31371021270752 0 12 2.68628978729248 12 6 C 12 9.31371021270752 9.31371021270752 12 6 12 C 2.68628978729248 12 0 9.31371021270752 0 6 C 0 2.68628978729248 2.68628978729248 0 6 0 Z" stroke="none" fill="#f20f38"/>
    </g>
    <g id="Ret창ngulo_108" data-name="Ret창ngulo 108" transform="translate(78 182)" fill="#f20f38" stroke="#f20f38" stroke-width="1">
      <rect width="119" height="2" stroke="none"/>
      <rect x="0.5" y="0.5" width="118" height="1" fill="none"/>
    </g>
    <g id="Ret창ngulo_109" data-name="Ret창ngulo 109" transform="translate(192 182)" fill="#f20f38" stroke="#f20f38" stroke-width="1">
      <rect width="106" height="2" stroke="none"/>
      <rect x="0.5" y="0.5" width="105" height="1" fill="none"/>
    </g>
  </g>
</svg>
