<svg id="Componente_1_1" data-name="Componente 1 – 1" xmlns="http://www.w3.org/2000/svg" xmlns:xlink="http://www.w3.org/1999/xlink" width="673.625" height="481.773" viewBox="0 0 673.625 481.773">
  <defs>
    <clipPath id="clip-path">
      <path id="Forma_17" data-name="Forma 17" d="M156.061,632.153,570.513,492l50.055,64.07L610.557,806.343,160.065,928.476,100,882.426Z" transform="translate(-100 -492)" fill="red"/>
    </clipPath>
  </defs>
  <g id="Logo_Alexia_2" data-name="Logo Alexia 2">
    <g id="Dinheiro" transform="translate(0 0)">
      <g id="Maquininha" transform="translate(0)">
        <g id="Forma_17-2" data-name="Forma 17">
          <path id="Forma_17-3" data-name="Forma 17" d="M156.061,632.153,570.513,492l50.055,64.07L610.557,806.343,160.065,928.476,100,882.426Z" transform="translate(-100 -492)" fill="red"/>
          <g id="Clip" clip-path="url(#clip-path)">
            <path id="Forma_19" data-name="Forma 19" d="M542.518,1008,68,1146.151l38.041,84.091,498.544-166.181Z" transform="translate(-84.017 -749.718)" fill="#b90606"/>
            <path id="Forma_18" data-name="Forma 18" d="M1016.017,472,1000,744.3l68.074,60.065,16.018-274.3Z" transform="translate(-549.509 -482.011)" fill="#fb3131"/>
          </g>
        </g>
        <path id="Forma_20" data-name="Forma 20" d="M815.641,591,805.13,787.715,686,816.746l22.024-192.209Z" transform="translate(-392.68 -541.446)" fill="#171717"/>
        <g id="Agrupar_4" data-name="Agrupar 4" transform="translate(46.046 97.511)">
          <path id="Elipse_4_copiar_2" data-name="Elipse 4 copiar 2" d="M280.826,783.6c10.388,3.365,15.425,16.54,11.25,29.426s-15.98,20.6-26.368,17.239-15.425-16.54-11.25-29.426S270.438,780.233,280.826,783.6Z" transform="translate(-222.458 -734.758)" fill="#171717"/>
          <path id="Elipse_4_copiar_3" data-name="Elipse 4 copiar 3" d="M259.826,928.6c10.388,3.365,15.425,16.54,11.25,29.426s-15.98,20.6-26.368,17.24-15.425-16.54-11.25-29.427S249.438,925.233,259.826,928.6Z" transform="translate(-211.969 -807.178)" fill="#171717"/>
          <path id="Elipse_4_copiar_4" data-name="Elipse 4 copiar 4" d="M219.827,1073.6c10.388,3.365,15.425,16.54,11.25,29.427s-15.98,20.6-26.368,17.239-15.425-16.54-11.25-29.426S209.438,1070.234,219.827,1073.6Z" transform="translate(-191.991 -879.599)" fill="#44a116"/>
          <path id="Elipse_4_copiar_5" data-name="Elipse 4 copiar 5" d="M340.826,1042.6c10.388,3.365,15.425,16.54,11.25,29.426s-15.98,20.6-26.368,17.24-15.425-16.54-11.25-29.426S330.438,1039.233,340.826,1042.6Z" transform="translate(-252.425 -864.116)" fill="#dd2323"/>
          <path id="Elipse_4_copiar_6" data-name="Elipse 4 copiar 6" d="M461.826,1008.6c10.388,3.365,15.425,16.54,11.25,29.426s-15.98,20.6-26.368,17.24-15.425-16.54-11.25-29.426S451.439,1005.233,461.826,1008.6Z" transform="translate(-312.859 -847.135)" fill="#f1d32b"/>
          <path id="Elipse_4_copiar_7" data-name="Elipse 4 copiar 7" d="M587.827,959.6c10.388,3.365,15.425,16.539,11.251,29.426s-15.98,20.6-26.368,17.239-15.425-16.54-11.25-29.426S577.438,956.233,587.827,959.6Z" transform="translate(-375.79 -822.661)" fill="#171717"/>
          <path id="Elipse_4_copiar_8" data-name="Elipse 4 copiar 8" d="M591.826,831.6c10.388,3.366,15.425,16.54,11.251,29.426s-15.98,20.6-26.369,17.24-15.425-16.54-11.25-29.426S581.438,828.233,591.826,831.6Z" transform="translate(-377.788 -758.731)" fill="#171717"/>
          <path id="Elipse_4_copiar_9" data-name="Elipse 4 copiar 9" d="M591.826,687.6c10.388,3.365,15.425,16.54,11.251,29.426s-15.98,20.6-26.369,17.24-15.425-16.54-11.25-29.426S581.438,684.233,591.826,687.6Z" transform="translate(-377.788 -686.81)" fill="#171717"/>
          <path id="Elipse_4_copiar_10" data-name="Elipse 4 copiar 10" d="M465.827,880.6c10.388,3.365,15.425,16.54,11.25,29.426s-15.98,20.6-26.368,17.24-15.425-16.54-11.25-29.426S455.438,877.233,465.827,880.6Z" transform="translate(-314.857 -783.205)" fill="#171717"/>
          <path id="Elipse_4_copiar_11" data-name="Elipse 4 copiar 11" d="M361.827,911.6c10.388,3.365,15.425,16.54,11.25,29.426s-15.98,20.6-26.368,17.239-15.425-16.54-11.25-29.426S351.438,908.233,361.827,911.6Z" transform="translate(-262.913 -798.688)" fill="#171717"/>
          <path id="Elipse_4_copiar_12" data-name="Elipse 4 copiar 12" d="M380.826,756.6c10.388,3.365,15.425,16.54,11.25,29.426s-15.98,20.6-26.368,17.239-15.425-16.54-11.25-29.426S370.439,753.233,380.826,756.6Z" transform="translate(-272.403 -721.272)" fill="#171717"/>
          <path id="Elipse_4_copiar_13" data-name="Elipse 4 copiar 13" d="M486.826,735.6c10.388,3.365,15.425,16.54,11.25,29.426s-15.98,20.6-26.368,17.239-15.425-16.54-11.25-29.426S476.438,732.233,486.826,735.6Z" transform="translate(-325.345 -710.784)" fill="#171717"/>
        </g>
      </g>
    </g>
    <g id="Grupo_246" data-name="Grupo 246" transform="translate(498.32 43.516)">
      <g id="Moedas" transform="translate(0 82.129)">
        <g id="Moeda" transform="translate(4.505 70.076)">
          <ellipse id="Elipse_5" data-name="Elipse 5" cx="70.076" cy="59.815" rx="70.076" ry="59.815" transform="translate(0.501 13.014)" fill="#dc5209"/>
          <g id="Elipse_5_copiar" data-name="Elipse 5 copiar" fill="#fe6b1d" stroke="#dbae28" stroke-width="20">
            <ellipse cx="70.577" cy="59.815" rx="70.577" ry="59.815" stroke="none"/>
            <ellipse cx="70.577" cy="59.815" rx="60.577" ry="49.815" fill="none"/>
          </g>
          <path id="Retângulo_4" data-name="Retângulo 4" d="M19.762,75.941l.281-8.95C3.664,66.325,0,62.634,0,62.634l1.463-14.52a64.687,64.687,0,0,0,19,5.562l.5-15.945C12.4,36.872-.09,34.411.8,19.337,1.507,7.483,14.458,4.988,22.01,4.486L22.151,0H30.9l-.009,4.632c12.321.9,13.493,2.045,13.493,2.045l.793,10.453a49.256,49.256,0,0,0-14.3-3.868L30.842,26.92l.18,0c14.83,2.353,20.795,11.9,20.9,18.564.1,6.285-4.709,18.933-21.164,21.24l-.018,9.213ZM30.789,53.448c6.8-.836,8.766-2.873,8.4-7.612-.309-3.968-3.586-5.875-8.367-6.9ZM13.76,20.229c-.033,1.377,1.226,4.09,7.578,5.613l.375-11.912C13.752,15.832,13.8,18.479,13.76,20.229Z" transform="translate(42.879 18.905)" fill="#dbae28"/>
        </g>
        <g id="Moeda_copiar" data-name="Moeda copiar" transform="translate(5.005 57.062)">
          <ellipse id="Elipse_5-2" data-name="Elipse 5" cx="70.076" cy="59.815" rx="70.076" ry="59.815" transform="translate(0.501 13.014)" fill="#dc5209"/>
          <g id="Elipse_5_copiar-2" data-name="Elipse 5 copiar" fill="#fe6b1d" stroke="#dbae28" stroke-width="20">
            <ellipse cx="70.577" cy="59.815" rx="70.577" ry="59.815" stroke="none"/>
            <ellipse cx="70.577" cy="59.815" rx="60.577" ry="49.815" fill="none"/>
          </g>
          <path id="Retângulo_4-2" data-name="Retângulo 4" d="M19.762,75.941l.281-8.95C3.664,66.325,0,62.634,0,62.634l1.463-14.52a64.687,64.687,0,0,0,19,5.562l.5-15.945C12.4,36.872-.09,34.411.8,19.337,1.507,7.483,14.458,4.988,22.01,4.486L22.151,0H30.9l-.009,4.633c12.321.9,13.493,2.045,13.493,2.045l.793,10.453a49.262,49.262,0,0,0-14.3-3.867L30.842,26.92l.18,0c14.83,2.353,20.794,11.9,20.9,18.564.1,6.285-4.709,18.933-21.164,21.24l-.018,9.213ZM30.789,53.448c6.8-.836,8.766-2.873,8.4-7.612-.309-3.968-3.586-5.875-8.367-6.9ZM13.76,20.229c-.033,1.377,1.228,4.09,7.578,5.613l.375-11.912C13.752,15.832,13.8,18.479,13.76,20.229Z" transform="translate(42.879 18.905)" fill="#dbae28"/>
        </g>
        <g id="Moeda_copiar_2" data-name="Moeda copiar 2" transform="translate(1.001 37.541)">
          <ellipse id="Elipse_5-3" data-name="Elipse 5" cx="70.076" cy="59.815" rx="70.076" ry="59.815" transform="translate(0.501 13.014)" fill="#dc5209"/>
          <g id="Elipse_5_copiar-3" data-name="Elipse 5 copiar" fill="#fe6b1d" stroke="#dbae28" stroke-width="20">
            <ellipse cx="70.577" cy="59.815" rx="70.577" ry="59.815" stroke="none"/>
            <ellipse cx="70.577" cy="59.815" rx="60.577" ry="49.815" fill="none"/>
          </g>
          <path id="Retângulo_4-3" data-name="Retângulo 4" d="M19.762,75.941l.281-8.95C3.664,66.325,0,62.633,0,62.633l1.464-14.52a64.685,64.685,0,0,0,19,5.562l.5-15.945C12.4,36.872-.09,34.411.8,19.337,1.507,7.483,14.458,4.988,22.01,4.486L22.151,0H30.9l-.009,4.632c12.321.9,13.493,2.045,13.493,2.045l.793,10.453a49.259,49.259,0,0,0-14.3-3.867L30.842,26.92l.18,0c14.83,2.353,20.794,11.9,20.9,18.564.1,6.285-4.709,18.932-21.164,21.24l-.018,9.213ZM30.789,53.448c6.8-.836,8.766-2.874,8.4-7.612-.309-3.968-3.586-5.875-8.367-6.9ZM13.76,20.229c-.033,1.377,1.228,4.09,7.578,5.613l.375-11.912C13.752,15.832,13.8,18.479,13.76,20.229Z" transform="translate(42.879 18.905)" fill="#dbae28"/>
        </g>
        <g id="Moeda_copiar_3" data-name="Moeda copiar 3" transform="translate(13.014 28.031)">
          <ellipse id="Elipse_5-4" data-name="Elipse 5" cx="70.076" cy="59.815" rx="70.076" ry="59.815" transform="translate(0.501 13.014)" fill="#dc5209"/>
          <g id="Elipse_5_copiar-4" data-name="Elipse 5 copiar" fill="#fe6b1d" stroke="#dbae28" stroke-width="20">
            <ellipse cx="70.577" cy="59.815" rx="70.577" ry="59.815" stroke="none"/>
            <ellipse cx="70.577" cy="59.815" rx="60.577" ry="49.815" fill="none"/>
          </g>
          <path id="Retângulo_4-4" data-name="Retângulo 4" d="M19.762,75.941l.282-8.95C3.664,66.325,0,62.633,0,62.633l1.463-14.52a64.655,64.655,0,0,0,19,5.562l.5-15.945C12.4,36.872-.09,34.411.8,19.337,1.507,7.483,14.458,4.988,22.01,4.486L22.151,0H30.9l-.009,4.632c12.321.9,13.493,2.045,13.493,2.045l.793,10.453a49.257,49.257,0,0,0-14.3-3.867L30.842,26.92l.18,0c14.83,2.353,20.795,11.9,20.9,18.564.1,6.285-4.709,18.932-21.164,21.24l-.018,9.214ZM30.789,53.448c6.8-.836,8.766-2.873,8.4-7.612-.309-3.968-3.586-5.875-8.367-6.9ZM13.76,20.229c-.033,1.377,1.226,4.09,7.578,5.613l.375-11.912C13.752,15.831,13.8,18.479,13.76,20.229Z" transform="translate(42.879 18.905)" fill="#dbae28"/>
        </g>
        <g id="Moeda_copiar_4" data-name="Moeda copiar 4" transform="translate(0 16.017)">
          <ellipse id="Elipse_5-5" data-name="Elipse 5" cx="70.076" cy="59.815" rx="70.076" ry="59.815" transform="translate(0.501 13.014)" fill="#dc5209"/>
          <g id="Elipse_5_copiar-5" data-name="Elipse 5 copiar" fill="#fe6b1d" stroke="#dbae28" stroke-width="20">
            <ellipse cx="70.577" cy="59.815" rx="70.577" ry="59.815" stroke="none"/>
            <ellipse cx="70.577" cy="59.815" rx="60.577" ry="49.815" fill="none"/>
          </g>
          <path id="Retângulo_4-5" data-name="Retângulo 4" d="M19.762,75.941l.281-8.95C3.664,66.325,0,62.634,0,62.634l1.463-14.52a64.688,64.688,0,0,0,19,5.562l.5-15.945C12.4,36.872-.09,34.411.8,19.337,1.507,7.483,14.458,4.988,22.01,4.486L22.151,0H30.9l-.009,4.633c12.321.9,13.493,2.044,13.493,2.044l.793,10.453a49.261,49.261,0,0,0-14.3-3.867L30.842,26.92l.18,0c14.831,2.353,20.795,11.9,20.9,18.564.1,6.285-4.709,18.932-21.164,21.24l-.018,9.213ZM30.789,53.448c6.8-.836,8.766-2.873,8.4-7.612-.309-3.968-3.586-5.875-8.367-6.9ZM13.76,20.229c-.033,1.377,1.226,4.09,7.578,5.613l.375-11.912C13.752,15.831,13.8,18.479,13.76,20.229Z" transform="translate(42.879 18.905)" fill="#dbae28"/>
        </g>
        <g id="Moeda_copiar_5" data-name="Moeda copiar 5" transform="translate(9.01)">
          <ellipse id="Elipse_5-6" data-name="Elipse 5" cx="70.076" cy="59.815" rx="70.076" ry="59.815" transform="translate(0.501 13.014)" fill="#dc5209"/>
          <g id="Elipse_5_copiar-6" data-name="Elipse 5 copiar" fill="#fe6b1d" stroke="#dbae28" stroke-width="20">
            <ellipse cx="70.577" cy="59.815" rx="70.577" ry="59.815" stroke="none"/>
            <ellipse cx="70.577" cy="59.815" rx="60.577" ry="49.815" fill="none"/>
          </g>
          <path id="Retângulo_4-6" data-name="Retângulo 4" d="M19.762,75.942l.281-8.95C3.664,66.325,0,62.634,0,62.634l1.463-14.52a64.68,64.68,0,0,0,19,5.562l.5-15.945C12.4,36.872-.09,34.411.8,19.337,1.507,7.483,14.458,4.988,22.01,4.486L22.151,0H30.9l-.009,4.633c12.319.9,13.493,2.045,13.493,2.045l.793,10.453a49.259,49.259,0,0,0-14.3-3.867L30.842,26.92l.18,0c14.831,2.354,20.795,11.9,20.9,18.564.1,6.285-4.709,18.933-21.164,21.24l-.018,9.214ZM30.789,53.448c6.8-.836,8.766-2.873,8.4-7.612-.309-3.968-3.586-5.875-8.367-6.9ZM13.76,20.229c-.033,1.377,1.226,4.09,7.578,5.613l.375-11.912C13.752,15.832,13.8,18.48,13.76,20.229Z" transform="translate(42.879 18.905)" fill="#dbae28"/>
        </g>
      </g>
      <g id="Moedas-2" data-name="Moedas" transform="translate(0 0)">
        <g id="Moeda-2" data-name="Moeda" transform="translate(4.505 70.076)">
          <ellipse id="Elipse_5-7" data-name="Elipse 5" cx="70.076" cy="59.815" rx="70.076" ry="59.815" transform="translate(0.501 13.014)" fill="#dc5209"/>
          <g id="Elipse_5_copiar-7" data-name="Elipse 5 copiar" fill="#fe6b1d" stroke="#dbae28" stroke-width="20">
            <ellipse cx="70.577" cy="59.815" rx="70.577" ry="59.815" stroke="none"/>
            <ellipse cx="70.577" cy="59.815" rx="60.577" ry="49.815" fill="none"/>
          </g>
          <path id="Retângulo_4-7" data-name="Retângulo 4" d="M19.762,75.941l.281-8.95C3.664,66.325,0,62.634,0,62.634l1.463-14.52a64.687,64.687,0,0,0,19,5.562l.5-15.945C12.4,36.872-.09,34.411.8,19.337,1.507,7.483,14.458,4.988,22.01,4.486L22.151,0H30.9l-.009,4.632c12.321.9,13.493,2.045,13.493,2.045l.793,10.453a49.256,49.256,0,0,0-14.3-3.868L30.842,26.92l.18,0c14.83,2.353,20.795,11.9,20.9,18.564.1,6.285-4.709,18.933-21.164,21.24l-.018,9.213ZM30.789,53.448c6.8-.836,8.766-2.873,8.4-7.612-.309-3.968-3.586-5.875-8.367-6.9ZM13.76,20.229c-.033,1.377,1.226,4.09,7.578,5.613l.375-11.912C13.752,15.832,13.8,18.479,13.76,20.229Z" transform="translate(42.879 18.905)" fill="#dbae28"/>
        </g>
        <g id="Moeda_copiar-2" data-name="Moeda copiar" transform="translate(5.005 57.062)">
          <ellipse id="Elipse_5-8" data-name="Elipse 5" cx="70.076" cy="59.815" rx="70.076" ry="59.815" transform="translate(0.501 13.014)" fill="#dc5209"/>
          <g id="Elipse_5_copiar-8" data-name="Elipse 5 copiar" fill="#fe6b1d" stroke="#dbae28" stroke-width="20">
            <ellipse cx="70.577" cy="59.815" rx="70.577" ry="59.815" stroke="none"/>
            <ellipse cx="70.577" cy="59.815" rx="60.577" ry="49.815" fill="none"/>
          </g>
          <path id="Retângulo_4-8" data-name="Retângulo 4" d="M19.762,75.941l.281-8.95C3.664,66.325,0,62.634,0,62.634l1.463-14.52a64.687,64.687,0,0,0,19,5.562l.5-15.945C12.4,36.872-.09,34.411.8,19.337,1.507,7.483,14.458,4.988,22.01,4.486L22.151,0H30.9l-.009,4.633c12.321.9,13.493,2.045,13.493,2.045l.793,10.453a49.262,49.262,0,0,0-14.3-3.867L30.842,26.92l.18,0c14.83,2.353,20.794,11.9,20.9,18.564.1,6.285-4.709,18.933-21.164,21.24l-.018,9.213ZM30.789,53.448c6.8-.836,8.766-2.873,8.4-7.612-.309-3.968-3.586-5.875-8.367-6.9ZM13.76,20.229c-.033,1.377,1.228,4.09,7.578,5.613l.375-11.912C13.752,15.832,13.8,18.479,13.76,20.229Z" transform="translate(42.879 18.905)" fill="#dbae28"/>
        </g>
        <g id="Moeda_copiar_2-2" data-name="Moeda copiar 2" transform="translate(1.001 37.541)">
          <ellipse id="Elipse_5-9" data-name="Elipse 5" cx="70.076" cy="59.815" rx="70.076" ry="59.815" transform="translate(0.501 13.014)" fill="#dc5209"/>
          <g id="Elipse_5_copiar-9" data-name="Elipse 5 copiar" fill="#fe6b1d" stroke="#dbae28" stroke-width="20">
            <ellipse cx="70.577" cy="59.815" rx="70.577" ry="59.815" stroke="none"/>
            <ellipse cx="70.577" cy="59.815" rx="60.577" ry="49.815" fill="none"/>
          </g>
          <path id="Retângulo_4-9" data-name="Retângulo 4" d="M19.762,75.941l.281-8.95C3.664,66.325,0,62.633,0,62.633l1.464-14.52a64.685,64.685,0,0,0,19,5.562l.5-15.945C12.4,36.872-.09,34.411.8,19.337,1.507,7.483,14.458,4.988,22.01,4.486L22.151,0H30.9l-.009,4.632c12.321.9,13.493,2.045,13.493,2.045l.793,10.453a49.259,49.259,0,0,0-14.3-3.867L30.842,26.92l.18,0c14.83,2.353,20.794,11.9,20.9,18.564.1,6.285-4.709,18.932-21.164,21.24l-.018,9.213ZM30.789,53.448c6.8-.836,8.766-2.874,8.4-7.612-.309-3.968-3.586-5.875-8.367-6.9ZM13.76,20.229c-.033,1.377,1.228,4.09,7.578,5.613l.375-11.912C13.752,15.832,13.8,18.479,13.76,20.229Z" transform="translate(42.879 18.905)" fill="#dbae28"/>
        </g>
        <g id="Moeda_copiar_3-2" data-name="Moeda copiar 3" transform="translate(13.014 28.031)">
          <ellipse id="Elipse_5-10" data-name="Elipse 5" cx="70.076" cy="59.815" rx="70.076" ry="59.815" transform="translate(0.501 13.014)" fill="#dc5209"/>
          <g id="Elipse_5_copiar-10" data-name="Elipse 5 copiar" fill="#fe6b1d" stroke="#dbae28" stroke-width="20">
            <ellipse cx="70.577" cy="59.815" rx="70.577" ry="59.815" stroke="none"/>
            <ellipse cx="70.577" cy="59.815" rx="60.577" ry="49.815" fill="none"/>
          </g>
          <path id="Retângulo_4-10" data-name="Retângulo 4" d="M19.762,75.941l.282-8.95C3.664,66.325,0,62.633,0,62.633l1.463-14.52a64.655,64.655,0,0,0,19,5.562l.5-15.945C12.4,36.872-.09,34.411.8,19.337,1.507,7.483,14.458,4.988,22.01,4.486L22.151,0H30.9l-.009,4.632c12.321.9,13.493,2.045,13.493,2.045l.793,10.453a49.257,49.257,0,0,0-14.3-3.867L30.842,26.92l.18,0c14.83,2.353,20.795,11.9,20.9,18.564.1,6.285-4.709,18.932-21.164,21.24l-.018,9.214ZM30.789,53.448c6.8-.836,8.766-2.873,8.4-7.612-.309-3.968-3.586-5.875-8.367-6.9ZM13.76,20.229c-.033,1.377,1.226,4.09,7.578,5.613l.375-11.912C13.752,15.831,13.8,18.479,13.76,20.229Z" transform="translate(42.879 18.905)" fill="#dbae28"/>
        </g>
        <g id="Moeda_copiar_4-2" data-name="Moeda copiar 4" transform="translate(0 16.017)">
          <ellipse id="Elipse_5-11" data-name="Elipse 5" cx="70.076" cy="59.815" rx="70.076" ry="59.815" transform="translate(0.501 13.014)" fill="#dc5209"/>
          <g id="Elipse_5_copiar-11" data-name="Elipse 5 copiar" fill="#fe6b1d" stroke="#dbae28" stroke-width="20">
            <ellipse cx="70.577" cy="59.815" rx="70.577" ry="59.815" stroke="none"/>
            <ellipse cx="70.577" cy="59.815" rx="60.577" ry="49.815" fill="none"/>
          </g>
          <path id="Retângulo_4-11" data-name="Retângulo 4" d="M19.762,75.941l.281-8.95C3.664,66.325,0,62.634,0,62.634l1.463-14.52a64.688,64.688,0,0,0,19,5.562l.5-15.945C12.4,36.872-.09,34.411.8,19.337,1.507,7.483,14.458,4.988,22.01,4.486L22.151,0H30.9l-.009,4.633c12.321.9,13.493,2.044,13.493,2.044l.793,10.453a49.261,49.261,0,0,0-14.3-3.867L30.842,26.92l.18,0c14.831,2.353,20.795,11.9,20.9,18.564.1,6.285-4.709,18.932-21.164,21.24l-.018,9.213ZM30.789,53.448c6.8-.836,8.766-2.873,8.4-7.612-.309-3.968-3.586-5.875-8.367-6.9ZM13.76,20.229c-.033,1.377,1.226,4.09,7.578,5.613l.375-11.912C13.752,15.831,13.8,18.479,13.76,20.229Z" transform="translate(42.879 18.905)" fill="#dbae28"/>
        </g>
        <g id="Moeda_copiar_5-2" data-name="Moeda copiar 5" transform="translate(9.01)">
          <ellipse id="Elipse_5-12" data-name="Elipse 5" cx="70.076" cy="59.815" rx="70.076" ry="59.815" transform="translate(0.501 13.014)" fill="#dbae28"/>
          <g id="Elipse_5_copiar-12" data-name="Elipse 5 copiar" fill="#dbae28" stroke="#dbae28" stroke-width="20">
            <ellipse cx="70.577" cy="59.815" rx="70.577" ry="59.815" stroke="none"/>
            <ellipse cx="70.577" cy="59.815" rx="60.577" ry="49.815" fill="none"/>
          </g>
          <path id="Retângulo_4-12" data-name="Retângulo 4" d="M19.762,75.942l.281-8.95C3.664,66.325,0,62.634,0,62.634l1.463-14.52a64.68,64.68,0,0,0,19,5.562l.5-15.945C12.4,36.872-.09,34.411.8,19.337,1.507,7.483,14.458,4.988,22.01,4.486L22.151,0H30.9l-.009,4.633c12.319.9,13.493,2.045,13.493,2.045l.793,10.453a49.259,49.259,0,0,0-14.3-3.867L30.842,26.92l.18,0c14.831,2.354,20.795,11.9,20.9,18.564.1,6.285-4.709,18.933-21.164,21.24l-.018,9.214ZM30.789,53.448c6.8-.836,8.766-2.873,8.4-7.612-.309-3.968-3.586-5.875-8.367-6.9ZM13.76,20.229c-.033,1.377,1.226,4.09,7.578,5.613l.375-11.912C13.752,15.832,13.8,18.48,13.76,20.229Z" transform="translate(42.879 18.905)" fill="#dbae28"/>
        </g>
      </g>
    </g>
  </g>
  <g id="Moedas-3" data-name="Moedas" transform="translate(365.054 279.052)">
    <g id="Moeda-3" data-name="Moeda" transform="translate(4.505 70.076)">
      <ellipse id="Elipse_5-13" data-name="Elipse 5" cx="70.076" cy="59.815" rx="70.076" ry="59.815" transform="translate(0.501 13.014)" fill="#dc5209"/>
      <g id="Elipse_5_copiar-13" data-name="Elipse 5 copiar" fill="#fe6b1d" stroke="#dbae28" stroke-width="20">
        <ellipse cx="70.577" cy="59.815" rx="70.577" ry="59.815" stroke="none"/>
        <ellipse cx="70.577" cy="59.815" rx="60.577" ry="49.815" fill="none"/>
      </g>
      <path id="Retângulo_4-13" data-name="Retângulo 4" d="M19.762,75.941l.281-8.95C3.664,66.325,0,62.634,0,62.634l1.463-14.52a64.687,64.687,0,0,0,19,5.562l.5-15.945C12.4,36.872-.09,34.411.8,19.337,1.507,7.483,14.458,4.988,22.01,4.486L22.151,0H30.9l-.009,4.632c12.321.9,13.493,2.045,13.493,2.045l.793,10.453a49.256,49.256,0,0,0-14.3-3.868L30.842,26.92l.18,0c14.83,2.353,20.795,11.9,20.9,18.564.1,6.285-4.709,18.933-21.164,21.24l-.018,9.213ZM30.789,53.448c6.8-.836,8.766-2.873,8.4-7.612-.309-3.968-3.586-5.875-8.367-6.9ZM13.76,20.229c-.033,1.377,1.226,4.09,7.578,5.613l.375-11.912C13.752,15.832,13.8,18.479,13.76,20.229Z" transform="translate(42.879 18.905)" fill="#dbae28"/>
    </g>
    <g id="Moeda_copiar-3" data-name="Moeda copiar" transform="translate(5.005 57.062)">
      <ellipse id="Elipse_5-14" data-name="Elipse 5" cx="70.076" cy="59.815" rx="70.076" ry="59.815" transform="translate(0.501 13.014)" fill="#dc5209"/>
      <g id="Elipse_5_copiar-14" data-name="Elipse 5 copiar" fill="#fe6b1d" stroke="#dbae28" stroke-width="20">
        <ellipse cx="70.577" cy="59.815" rx="70.577" ry="59.815" stroke="none"/>
        <ellipse cx="70.577" cy="59.815" rx="60.577" ry="49.815" fill="none"/>
      </g>
      <path id="Retângulo_4-14" data-name="Retângulo 4" d="M19.762,75.941l.281-8.95C3.664,66.325,0,62.634,0,62.634l1.463-14.52a64.687,64.687,0,0,0,19,5.562l.5-15.945C12.4,36.872-.09,34.411.8,19.337,1.507,7.483,14.458,4.988,22.01,4.486L22.151,0H30.9l-.009,4.633c12.321.9,13.493,2.045,13.493,2.045l.793,10.453a49.262,49.262,0,0,0-14.3-3.867L30.842,26.92l.18,0c14.83,2.353,20.794,11.9,20.9,18.564.1,6.285-4.709,18.933-21.164,21.24l-.018,9.213ZM30.789,53.448c6.8-.836,8.766-2.873,8.4-7.612-.309-3.968-3.586-5.875-8.367-6.9ZM13.76,20.229c-.033,1.377,1.228,4.09,7.578,5.613l.375-11.912C13.752,15.832,13.8,18.479,13.76,20.229Z" transform="translate(42.879 18.905)" fill="#dbae28"/>
    </g>
    <g id="Moeda_copiar_2-3" data-name="Moeda copiar 2" transform="translate(1.001 37.541)">
      <ellipse id="Elipse_5-15" data-name="Elipse 5" cx="70.076" cy="59.815" rx="70.076" ry="59.815" transform="translate(0.501 13.014)" fill="#dc5209"/>
      <g id="Elipse_5_copiar-15" data-name="Elipse 5 copiar" fill="#fe6b1d" stroke="#dbae28" stroke-width="20">
        <ellipse cx="70.577" cy="59.815" rx="70.577" ry="59.815" stroke="none"/>
        <ellipse cx="70.577" cy="59.815" rx="60.577" ry="49.815" fill="none"/>
      </g>
      <path id="Retângulo_4-15" data-name="Retângulo 4" d="M19.762,75.941l.281-8.95C3.664,66.325,0,62.633,0,62.633l1.464-14.52a64.685,64.685,0,0,0,19,5.562l.5-15.945C12.4,36.872-.09,34.411.8,19.337,1.507,7.483,14.458,4.988,22.01,4.486L22.151,0H30.9l-.009,4.632c12.321.9,13.493,2.045,13.493,2.045l.793,10.453a49.259,49.259,0,0,0-14.3-3.867L30.842,26.92l.18,0c14.83,2.353,20.794,11.9,20.9,18.564.1,6.285-4.709,18.932-21.164,21.24l-.018,9.213ZM30.789,53.448c6.8-.836,8.766-2.874,8.4-7.612-.309-3.968-3.586-5.875-8.367-6.9ZM13.76,20.229c-.033,1.377,1.228,4.09,7.578,5.613l.375-11.912C13.752,15.832,13.8,18.479,13.76,20.229Z" transform="translate(42.879 18.905)" fill="#dbae28"/>
    </g>
    <g id="Moeda_copiar_3-3" data-name="Moeda copiar 3" transform="translate(13.014 28.031)">
      <ellipse id="Elipse_5-16" data-name="Elipse 5" cx="70.076" cy="59.815" rx="70.076" ry="59.815" transform="translate(0.501 13.014)" fill="#dc5209"/>
      <g id="Elipse_5_copiar-16" data-name="Elipse 5 copiar" fill="#fe6b1d" stroke="#dbae28" stroke-width="20">
        <ellipse cx="70.577" cy="59.815" rx="70.577" ry="59.815" stroke="none"/>
        <ellipse cx="70.577" cy="59.815" rx="60.577" ry="49.815" fill="none"/>
      </g>
      <path id="Retângulo_4-16" data-name="Retângulo 4" d="M19.762,75.941l.282-8.95C3.664,66.325,0,62.633,0,62.633l1.463-14.52a64.655,64.655,0,0,0,19,5.562l.5-15.945C12.4,36.872-.09,34.411.8,19.337,1.507,7.483,14.458,4.988,22.01,4.486L22.151,0H30.9l-.009,4.632c12.321.9,13.493,2.045,13.493,2.045l.793,10.453a49.257,49.257,0,0,0-14.3-3.867L30.842,26.92l.18,0c14.83,2.353,20.795,11.9,20.9,18.564.1,6.285-4.709,18.932-21.164,21.24l-.018,9.214ZM30.789,53.448c6.8-.836,8.766-2.873,8.4-7.612-.309-3.968-3.586-5.875-8.367-6.9ZM13.76,20.229c-.033,1.377,1.226,4.09,7.578,5.613l.375-11.912C13.752,15.831,13.8,18.479,13.76,20.229Z" transform="translate(42.879 18.905)" fill="#dbae28"/>
    </g>
    <g id="Moeda_copiar_4-3" data-name="Moeda copiar 4" transform="translate(0 16.017)">
      <ellipse id="Elipse_5-17" data-name="Elipse 5" cx="70.076" cy="59.815" rx="70.076" ry="59.815" transform="translate(0.501 13.014)" fill="#dc5209"/>
      <g id="Elipse_5_copiar-17" data-name="Elipse 5 copiar" fill="#fe6b1d" stroke="#dbae28" stroke-width="20">
        <ellipse cx="70.577" cy="59.815" rx="70.577" ry="59.815" stroke="none"/>
        <ellipse cx="70.577" cy="59.815" rx="60.577" ry="49.815" fill="none"/>
      </g>
      <path id="Retângulo_4-17" data-name="Retângulo 4" d="M19.762,75.941l.281-8.95C3.664,66.325,0,62.634,0,62.634l1.463-14.52a64.688,64.688,0,0,0,19,5.562l.5-15.945C12.4,36.872-.09,34.411.8,19.337,1.507,7.483,14.458,4.988,22.01,4.486L22.151,0H30.9l-.009,4.633c12.321.9,13.493,2.044,13.493,2.044l.793,10.453a49.261,49.261,0,0,0-14.3-3.867L30.842,26.92l.18,0c14.831,2.353,20.795,11.9,20.9,18.564.1,6.285-4.709,18.932-21.164,21.24l-.018,9.213ZM30.789,53.448c6.8-.836,8.766-2.873,8.4-7.612-.309-3.968-3.586-5.875-8.367-6.9ZM13.76,20.229c-.033,1.377,1.226,4.09,7.578,5.613l.375-11.912C13.752,15.831,13.8,18.479,13.76,20.229Z" transform="translate(42.879 18.905)" fill="#dbae28"/>
    </g>
    <g id="Moeda_copiar_5-3" data-name="Moeda copiar 5" transform="translate(9.01)">
      <ellipse id="Elipse_5-18" data-name="Elipse 5" cx="70.076" cy="59.815" rx="70.076" ry="59.815" transform="translate(0.501 13.014)" fill="#dc5209"/>
      <g id="Elipse_5_copiar-18" data-name="Elipse 5 copiar" fill="#fe6b1d" stroke="#dbae28" stroke-width="20">
        <ellipse cx="70.577" cy="59.815" rx="70.577" ry="59.815" stroke="none"/>
        <ellipse cx="70.577" cy="59.815" rx="60.577" ry="49.815" fill="none"/>
      </g>
      <path id="Retângulo_4-18" data-name="Retângulo 4" d="M19.762,75.942l.281-8.95C3.664,66.325,0,62.634,0,62.634l1.463-14.52a64.68,64.68,0,0,0,19,5.562l.5-15.945C12.4,36.872-.09,34.411.8,19.337,1.507,7.483,14.458,4.988,22.01,4.486L22.151,0H30.9l-.009,4.633c12.319.9,13.493,2.045,13.493,2.045l.793,10.453a49.259,49.259,0,0,0-14.3-3.867L30.842,26.92l.18,0c14.831,2.354,20.795,11.9,20.9,18.564.1,6.285-4.709,18.933-21.164,21.24l-.018,9.214ZM30.789,53.448c6.8-.836,8.766-2.873,8.4-7.612-.309-3.968-3.586-5.875-8.367-6.9ZM13.76,20.229c-.033,1.377,1.226,4.09,7.578,5.613l.375-11.912C13.752,15.832,13.8,18.48,13.76,20.229Z" transform="translate(42.879 18.905)" fill="#dbae28"/>
    </g>
  </g>
  <g id="Moedas-4" data-name="Moedas" transform="translate(365.054 196.922)">
    <g id="Moeda-4" data-name="Moeda" transform="translate(4.505 70.076)">
      <ellipse id="Elipse_5-19" data-name="Elipse 5" cx="70.076" cy="59.815" rx="70.076" ry="59.815" transform="translate(0.501 13.014)" fill="#dc5209"/>
      <g id="Elipse_5_copiar-19" data-name="Elipse 5 copiar" fill="#fe6b1d" stroke="#dbae28" stroke-width="20">
        <ellipse cx="70.577" cy="59.815" rx="70.577" ry="59.815" stroke="none"/>
        <ellipse cx="70.577" cy="59.815" rx="60.577" ry="49.815" fill="none"/>
      </g>
      <path id="Retângulo_4-19" data-name="Retângulo 4" d="M19.762,75.941l.281-8.95C3.664,66.325,0,62.634,0,62.634l1.463-14.52a64.687,64.687,0,0,0,19,5.562l.5-15.945C12.4,36.872-.09,34.411.8,19.337,1.507,7.483,14.458,4.988,22.01,4.486L22.151,0H30.9l-.009,4.632c12.321.9,13.493,2.045,13.493,2.045l.793,10.453a49.256,49.256,0,0,0-14.3-3.868L30.842,26.92l.18,0c14.83,2.353,20.795,11.9,20.9,18.564.1,6.285-4.709,18.933-21.164,21.24l-.018,9.213ZM30.789,53.448c6.8-.836,8.766-2.873,8.4-7.612-.309-3.968-3.586-5.875-8.367-6.9ZM13.76,20.229c-.033,1.377,1.226,4.09,7.578,5.613l.375-11.912C13.752,15.832,13.8,18.479,13.76,20.229Z" transform="translate(42.879 18.905)" fill="#dbae28"/>
    </g>
    <g id="Moeda_copiar-4" data-name="Moeda copiar" transform="translate(5.005 57.062)">
      <ellipse id="Elipse_5-20" data-name="Elipse 5" cx="70.076" cy="59.815" rx="70.076" ry="59.815" transform="translate(0.501 13.014)" fill="#dc5209"/>
      <g id="Elipse_5_copiar-20" data-name="Elipse 5 copiar" fill="#fe6b1d" stroke="#dbae28" stroke-width="20">
        <ellipse cx="70.577" cy="59.815" rx="70.577" ry="59.815" stroke="none"/>
        <ellipse cx="70.577" cy="59.815" rx="60.577" ry="49.815" fill="none"/>
      </g>
      <path id="Retângulo_4-20" data-name="Retângulo 4" d="M19.762,75.941l.281-8.95C3.664,66.325,0,62.634,0,62.634l1.463-14.52a64.687,64.687,0,0,0,19,5.562l.5-15.945C12.4,36.872-.09,34.411.8,19.337,1.507,7.483,14.458,4.988,22.01,4.486L22.151,0H30.9l-.009,4.633c12.321.9,13.493,2.045,13.493,2.045l.793,10.453a49.262,49.262,0,0,0-14.3-3.867L30.842,26.92l.18,0c14.83,2.353,20.794,11.9,20.9,18.564.1,6.285-4.709,18.933-21.164,21.24l-.018,9.213ZM30.789,53.448c6.8-.836,8.766-2.873,8.4-7.612-.309-3.968-3.586-5.875-8.367-6.9ZM13.76,20.229c-.033,1.377,1.228,4.09,7.578,5.613l.375-11.912C13.752,15.832,13.8,18.479,13.76,20.229Z" transform="translate(42.879 18.905)" fill="#dbae28"/>
    </g>
    <g id="Moeda_copiar_2-4" data-name="Moeda copiar 2" transform="translate(1.001 37.541)">
      <ellipse id="Elipse_5-21" data-name="Elipse 5" cx="70.076" cy="59.815" rx="70.076" ry="59.815" transform="translate(0.501 13.014)" fill="#dc5209"/>
      <g id="Elipse_5_copiar-21" data-name="Elipse 5 copiar" fill="#fe6b1d" stroke="#dbae28" stroke-width="20">
        <ellipse cx="70.577" cy="59.815" rx="70.577" ry="59.815" stroke="none"/>
        <ellipse cx="70.577" cy="59.815" rx="60.577" ry="49.815" fill="none"/>
      </g>
      <path id="Retângulo_4-21" data-name="Retângulo 4" d="M19.762,75.941l.281-8.95C3.664,66.325,0,62.633,0,62.633l1.464-14.52a64.685,64.685,0,0,0,19,5.562l.5-15.945C12.4,36.872-.09,34.411.8,19.337,1.507,7.483,14.458,4.988,22.01,4.486L22.151,0H30.9l-.009,4.632c12.321.9,13.493,2.045,13.493,2.045l.793,10.453a49.259,49.259,0,0,0-14.3-3.867L30.842,26.92l.18,0c14.83,2.353,20.794,11.9,20.9,18.564.1,6.285-4.709,18.932-21.164,21.24l-.018,9.213ZM30.789,53.448c6.8-.836,8.766-2.874,8.4-7.612-.309-3.968-3.586-5.875-8.367-6.9ZM13.76,20.229c-.033,1.377,1.228,4.09,7.578,5.613l.375-11.912C13.752,15.832,13.8,18.479,13.76,20.229Z" transform="translate(42.879 18.905)" fill="#dbae28"/>
    </g>
    <g id="Moeda_copiar_3-4" data-name="Moeda copiar 3" transform="translate(13.014 28.031)">
      <ellipse id="Elipse_5-22" data-name="Elipse 5" cx="70.076" cy="59.815" rx="70.076" ry="59.815" transform="translate(0.501 13.014)" fill="#dc5209"/>
      <g id="Elipse_5_copiar-22" data-name="Elipse 5 copiar" fill="#fe6b1d" stroke="#dbae28" stroke-width="20">
        <ellipse cx="70.577" cy="59.815" rx="70.577" ry="59.815" stroke="none"/>
        <ellipse cx="70.577" cy="59.815" rx="60.577" ry="49.815" fill="none"/>
      </g>
      <path id="Retângulo_4-22" data-name="Retângulo 4" d="M19.762,75.941l.282-8.95C3.664,66.325,0,62.633,0,62.633l1.463-14.52a64.655,64.655,0,0,0,19,5.562l.5-15.945C12.4,36.872-.09,34.411.8,19.337,1.507,7.483,14.458,4.988,22.01,4.486L22.151,0H30.9l-.009,4.632c12.321.9,13.493,2.045,13.493,2.045l.793,10.453a49.257,49.257,0,0,0-14.3-3.867L30.842,26.92l.18,0c14.83,2.353,20.795,11.9,20.9,18.564.1,6.285-4.709,18.932-21.164,21.24l-.018,9.214ZM30.789,53.448c6.8-.836,8.766-2.873,8.4-7.612-.309-3.968-3.586-5.875-8.367-6.9ZM13.76,20.229c-.033,1.377,1.226,4.09,7.578,5.613l.375-11.912C13.752,15.831,13.8,18.479,13.76,20.229Z" transform="translate(42.879 18.905)" fill="#dbae28"/>
    </g>
    <g id="Moeda_copiar_4-4" data-name="Moeda copiar 4" transform="translate(0 16.017)">
      <ellipse id="Elipse_5-23" data-name="Elipse 5" cx="70.076" cy="59.815" rx="70.076" ry="59.815" transform="translate(0.501 13.014)" fill="#dc5209"/>
      <g id="Elipse_5_copiar-23" data-name="Elipse 5 copiar" fill="#fe6b1d" stroke="#dbae28" stroke-width="20">
        <ellipse cx="70.577" cy="59.815" rx="70.577" ry="59.815" stroke="none"/>
        <ellipse cx="70.577" cy="59.815" rx="60.577" ry="49.815" fill="none"/>
      </g>
      <path id="Retângulo_4-23" data-name="Retângulo 4" d="M19.762,75.941l.281-8.95C3.664,66.325,0,62.634,0,62.634l1.463-14.52a64.688,64.688,0,0,0,19,5.562l.5-15.945C12.4,36.872-.09,34.411.8,19.337,1.507,7.483,14.458,4.988,22.01,4.486L22.151,0H30.9l-.009,4.633c12.321.9,13.493,2.044,13.493,2.044l.793,10.453a49.261,49.261,0,0,0-14.3-3.867L30.842,26.92l.18,0c14.831,2.353,20.795,11.9,20.9,18.564.1,6.285-4.709,18.932-21.164,21.24l-.018,9.213ZM30.789,53.448c6.8-.836,8.766-2.873,8.4-7.612-.309-3.968-3.586-5.875-8.367-6.9ZM13.76,20.229c-.033,1.377,1.226,4.09,7.578,5.613l.375-11.912C13.752,15.831,13.8,18.479,13.76,20.229Z" transform="translate(42.879 18.905)" fill="#dbae28"/>
    </g>
    <g id="Moeda_copiar_5-4" data-name="Moeda copiar 5" transform="translate(9.01)">
      <ellipse id="Elipse_5-24" data-name="Elipse 5" cx="70.076" cy="59.815" rx="70.076" ry="59.815" transform="translate(0.501 13.014)" fill="#dbae28"/>
      <g id="Elipse_5_copiar-24" data-name="Elipse 5 copiar" fill="#dbae28" stroke="#dbae28" stroke-width="20">
        <ellipse cx="70.577" cy="59.815" rx="70.577" ry="59.815" stroke="none"/>
        <ellipse cx="70.577" cy="59.815" rx="60.577" ry="49.815" fill="none"/>
      </g>
      <path id="Retângulo_4-24" data-name="Retângulo 4" d="M19.762,75.942l.281-8.95C3.664,66.325,0,62.634,0,62.634l1.463-14.52a64.68,64.68,0,0,0,19,5.562l.5-15.945C12.4,36.872-.09,34.411.8,19.337,1.507,7.483,14.458,4.988,22.01,4.486L22.151,0H30.9l-.009,4.633c12.319.9,13.493,2.045,13.493,2.045l.793,10.453a49.259,49.259,0,0,0-14.3-3.867L30.842,26.92l.18,0c14.831,2.354,20.795,11.9,20.9,18.564.1,6.285-4.709,18.933-21.164,21.24l-.018,9.214ZM30.789,53.448c6.8-.836,8.766-2.873,8.4-7.612-.309-3.968-3.586-5.875-8.367-6.9ZM13.76,20.229c-.033,1.377,1.226,4.09,7.578,5.613l.375-11.912C13.752,15.832,13.8,18.48,13.76,20.229Z" transform="translate(42.879 18.905)" fill="#dbae28"/>
    </g>
  </g>
  <g id="Moedas-5" data-name="Moedas" transform="translate(519.457 265.196)">
    <g id="Moeda-5" data-name="Moeda" transform="translate(4.505 70.076)">
      <ellipse id="Elipse_5-25" data-name="Elipse 5" cx="70.076" cy="59.815" rx="70.076" ry="59.815" transform="translate(0.501 13.014)" fill="#dc5209"/>
      <g id="Elipse_5_copiar-25" data-name="Elipse 5 copiar" fill="#fe6b1d" stroke="#dbae28" stroke-width="20">
        <ellipse cx="70.577" cy="59.815" rx="70.577" ry="59.815" stroke="none"/>
        <ellipse cx="70.577" cy="59.815" rx="60.577" ry="49.815" fill="none"/>
      </g>
      <path id="Retângulo_4-25" data-name="Retângulo 4" d="M19.762,75.941l.281-8.95C3.664,66.325,0,62.634,0,62.634l1.463-14.52a64.687,64.687,0,0,0,19,5.562l.5-15.945C12.4,36.872-.09,34.411.8,19.337,1.507,7.483,14.458,4.988,22.01,4.486L22.151,0H30.9l-.009,4.632c12.321.9,13.493,2.045,13.493,2.045l.793,10.453a49.256,49.256,0,0,0-14.3-3.868L30.842,26.92l.18,0c14.83,2.353,20.795,11.9,20.9,18.564.1,6.285-4.709,18.933-21.164,21.24l-.018,9.213ZM30.789,53.448c6.8-.836,8.766-2.873,8.4-7.612-.309-3.968-3.586-5.875-8.367-6.9ZM13.76,20.229c-.033,1.377,1.226,4.09,7.578,5.613l.375-11.912C13.752,15.832,13.8,18.479,13.76,20.229Z" transform="translate(42.879 18.905)" fill="#dbae28"/>
    </g>
    <g id="Moeda_copiar-5" data-name="Moeda copiar" transform="translate(5.005 57.062)">
      <ellipse id="Elipse_5-26" data-name="Elipse 5" cx="70.076" cy="59.815" rx="70.076" ry="59.815" transform="translate(0.501 13.014)" fill="#dc5209"/>
      <g id="Elipse_5_copiar-26" data-name="Elipse 5 copiar" fill="#fe6b1d" stroke="#dbae28" stroke-width="20">
        <ellipse cx="70.577" cy="59.815" rx="70.577" ry="59.815" stroke="none"/>
        <ellipse cx="70.577" cy="59.815" rx="60.577" ry="49.815" fill="none"/>
      </g>
      <path id="Retângulo_4-26" data-name="Retângulo 4" d="M19.762,75.941l.281-8.95C3.664,66.325,0,62.634,0,62.634l1.463-14.52a64.687,64.687,0,0,0,19,5.562l.5-15.945C12.4,36.872-.09,34.411.8,19.337,1.507,7.483,14.458,4.988,22.01,4.486L22.151,0H30.9l-.009,4.633c12.321.9,13.493,2.045,13.493,2.045l.793,10.453a49.262,49.262,0,0,0-14.3-3.867L30.842,26.92l.18,0c14.83,2.353,20.794,11.9,20.9,18.564.1,6.285-4.709,18.933-21.164,21.24l-.018,9.213ZM30.789,53.448c6.8-.836,8.766-2.873,8.4-7.612-.309-3.968-3.586-5.875-8.367-6.9ZM13.76,20.229c-.033,1.377,1.228,4.09,7.578,5.613l.375-11.912C13.752,15.832,13.8,18.479,13.76,20.229Z" transform="translate(42.879 18.905)" fill="#dbae28"/>
    </g>
    <g id="Moeda_copiar_2-5" data-name="Moeda copiar 2" transform="translate(1.001 37.541)">
      <ellipse id="Elipse_5-27" data-name="Elipse 5" cx="70.076" cy="59.815" rx="70.076" ry="59.815" transform="translate(0.501 13.014)" fill="#dc5209"/>
      <g id="Elipse_5_copiar-27" data-name="Elipse 5 copiar" fill="#fe6b1d" stroke="#dbae28" stroke-width="20">
        <ellipse cx="70.577" cy="59.815" rx="70.577" ry="59.815" stroke="none"/>
        <ellipse cx="70.577" cy="59.815" rx="60.577" ry="49.815" fill="none"/>
      </g>
      <path id="Retângulo_4-27" data-name="Retângulo 4" d="M19.762,75.941l.281-8.95C3.664,66.325,0,62.633,0,62.633l1.464-14.52a64.685,64.685,0,0,0,19,5.562l.5-15.945C12.4,36.872-.09,34.411.8,19.337,1.507,7.483,14.458,4.988,22.01,4.486L22.151,0H30.9l-.009,4.632c12.321.9,13.493,2.045,13.493,2.045l.793,10.453a49.259,49.259,0,0,0-14.3-3.867L30.842,26.92l.18,0c14.83,2.353,20.794,11.9,20.9,18.564.1,6.285-4.709,18.932-21.164,21.24l-.018,9.213ZM30.789,53.448c6.8-.836,8.766-2.874,8.4-7.612-.309-3.968-3.586-5.875-8.367-6.9ZM13.76,20.229c-.033,1.377,1.228,4.09,7.578,5.613l.375-11.912C13.752,15.832,13.8,18.479,13.76,20.229Z" transform="translate(42.879 18.905)" fill="#dbae28"/>
    </g>
    <g id="Moeda_copiar_3-5" data-name="Moeda copiar 3" transform="translate(13.014 28.031)">
      <ellipse id="Elipse_5-28" data-name="Elipse 5" cx="70.076" cy="59.815" rx="70.076" ry="59.815" transform="translate(0.501 13.014)" fill="#dc5209"/>
      <g id="Elipse_5_copiar-28" data-name="Elipse 5 copiar" fill="#fe6b1d" stroke="#dbae28" stroke-width="20">
        <ellipse cx="70.577" cy="59.815" rx="70.577" ry="59.815" stroke="none"/>
        <ellipse cx="70.577" cy="59.815" rx="60.577" ry="49.815" fill="none"/>
      </g>
      <path id="Retângulo_4-28" data-name="Retângulo 4" d="M19.762,75.941l.282-8.95C3.664,66.325,0,62.633,0,62.633l1.463-14.52a64.655,64.655,0,0,0,19,5.562l.5-15.945C12.4,36.872-.09,34.411.8,19.337,1.507,7.483,14.458,4.988,22.01,4.486L22.151,0H30.9l-.009,4.632c12.321.9,13.493,2.045,13.493,2.045l.793,10.453a49.257,49.257,0,0,0-14.3-3.867L30.842,26.92l.18,0c14.83,2.353,20.795,11.9,20.9,18.564.1,6.285-4.709,18.932-21.164,21.24l-.018,9.214ZM30.789,53.448c6.8-.836,8.766-2.873,8.4-7.612-.309-3.968-3.586-5.875-8.367-6.9ZM13.76,20.229c-.033,1.377,1.226,4.09,7.578,5.613l.375-11.912C13.752,15.831,13.8,18.479,13.76,20.229Z" transform="translate(42.879 18.905)" fill="#dbae28"/>
    </g>
    <g id="Moeda_copiar_4-5" data-name="Moeda copiar 4" transform="translate(0 16.017)">
      <ellipse id="Elipse_5-29" data-name="Elipse 5" cx="70.076" cy="59.815" rx="70.076" ry="59.815" transform="translate(0.501 13.014)" fill="#dc5209"/>
      <g id="Elipse_5_copiar-29" data-name="Elipse 5 copiar" fill="#fe6b1d" stroke="#dbae28" stroke-width="20">
        <ellipse cx="70.577" cy="59.815" rx="70.577" ry="59.815" stroke="none"/>
        <ellipse cx="70.577" cy="59.815" rx="60.577" ry="49.815" fill="none"/>
      </g>
      <path id="Retângulo_4-29" data-name="Retângulo 4" d="M19.762,75.941l.281-8.95C3.664,66.325,0,62.634,0,62.634l1.463-14.52a64.688,64.688,0,0,0,19,5.562l.5-15.945C12.4,36.872-.09,34.411.8,19.337,1.507,7.483,14.458,4.988,22.01,4.486L22.151,0H30.9l-.009,4.633c12.321.9,13.493,2.044,13.493,2.044l.793,10.453a49.261,49.261,0,0,0-14.3-3.867L30.842,26.92l.18,0c14.831,2.353,20.795,11.9,20.9,18.564.1,6.285-4.709,18.932-21.164,21.24l-.018,9.213ZM30.789,53.448c6.8-.836,8.766-2.873,8.4-7.612-.309-3.968-3.586-5.875-8.367-6.9ZM13.76,20.229c-.033,1.377,1.226,4.09,7.578,5.613l.375-11.912C13.752,15.831,13.8,18.479,13.76,20.229Z" transform="translate(42.879 18.905)" fill="#dbae28"/>
    </g>
    <g id="Moeda_copiar_5-5" data-name="Moeda copiar 5" transform="translate(9.01)">
      <ellipse id="Elipse_5-30" data-name="Elipse 5" cx="70.076" cy="59.815" rx="70.076" ry="59.815" transform="translate(0.501 13.014)" fill="#dc5209"/>
      <g id="Elipse_5_copiar-30" data-name="Elipse 5 copiar" fill="#dbae28" stroke="#dbae28" stroke-width="20">
        <ellipse cx="70.577" cy="59.815" rx="70.577" ry="59.815" stroke="none"/>
        <ellipse cx="70.577" cy="59.815" rx="60.577" ry="49.815" fill="none"/>
      </g>
      <path id="Retângulo_4-30" data-name="Retângulo 4" d="M19.762,75.942l.281-8.95C3.664,66.325,0,62.634,0,62.634l1.463-14.52a64.68,64.68,0,0,0,19,5.562l.5-15.945C12.4,36.872-.09,34.411.8,19.337,1.507,7.483,14.458,4.988,22.01,4.486L22.151,0H30.9l-.009,4.633c12.319.9,13.493,2.045,13.493,2.045l.793,10.453a49.259,49.259,0,0,0-14.3-3.867L30.842,26.92l.18,0c14.831,2.354,20.795,11.9,20.9,18.564.1,6.285-4.709,18.933-21.164,21.24l-.018,9.214ZM30.789,53.448c6.8-.836,8.766-2.873,8.4-7.612-.309-3.968-3.586-5.875-8.367-6.9ZM13.76,20.229c-.033,1.377,1.226,4.09,7.578,5.613l.375-11.912C13.752,15.832,13.8,18.48,13.76,20.229Z" transform="translate(42.879 18.905)" fill="#dbae28"/>
    </g>
  </g>
  <g id="Moedas-6" data-name="Moedas" transform="translate(365.054 196.922)">
    <g id="Moeda-6" data-name="Moeda" transform="translate(4.505 70.076)">
      <ellipse id="Elipse_5-31" data-name="Elipse 5" cx="70.076" cy="59.815" rx="70.076" ry="59.815" transform="translate(0.501 13.014)" fill="#dc5209"/>
      <g id="Elipse_5_copiar-31" data-name="Elipse 5 copiar" fill="#fe6b1d" stroke="#dbae28" stroke-width="20">
        <ellipse cx="70.577" cy="59.815" rx="70.577" ry="59.815" stroke="none"/>
        <ellipse cx="70.577" cy="59.815" rx="60.577" ry="49.815" fill="none"/>
      </g>
      <path id="Retângulo_4-31" data-name="Retângulo 4" d="M19.762,75.941l.281-8.95C3.664,66.325,0,62.634,0,62.634l1.463-14.52a64.687,64.687,0,0,0,19,5.562l.5-15.945C12.4,36.872-.09,34.411.8,19.337,1.507,7.483,14.458,4.988,22.01,4.486L22.151,0H30.9l-.009,4.632c12.321.9,13.493,2.045,13.493,2.045l.793,10.453a49.256,49.256,0,0,0-14.3-3.868L30.842,26.92l.18,0c14.83,2.353,20.795,11.9,20.9,18.564.1,6.285-4.709,18.933-21.164,21.24l-.018,9.213ZM30.789,53.448c6.8-.836,8.766-2.873,8.4-7.612-.309-3.968-3.586-5.875-8.367-6.9ZM13.76,20.229c-.033,1.377,1.226,4.09,7.578,5.613l.375-11.912C13.752,15.832,13.8,18.479,13.76,20.229Z" transform="translate(42.879 18.905)" fill="#dbae28"/>
    </g>
    <g id="Moeda_copiar-6" data-name="Moeda copiar" transform="translate(5.005 57.062)">
      <ellipse id="Elipse_5-32" data-name="Elipse 5" cx="70.076" cy="59.815" rx="70.076" ry="59.815" transform="translate(0.501 13.014)" fill="#dc5209"/>
      <g id="Elipse_5_copiar-32" data-name="Elipse 5 copiar" fill="#fe6b1d" stroke="#dbae28" stroke-width="20">
        <ellipse cx="70.577" cy="59.815" rx="70.577" ry="59.815" stroke="none"/>
        <ellipse cx="70.577" cy="59.815" rx="60.577" ry="49.815" fill="none"/>
      </g>
      <path id="Retângulo_4-32" data-name="Retângulo 4" d="M19.762,75.941l.281-8.95C3.664,66.325,0,62.634,0,62.634l1.463-14.52a64.687,64.687,0,0,0,19,5.562l.5-15.945C12.4,36.872-.09,34.411.8,19.337,1.507,7.483,14.458,4.988,22.01,4.486L22.151,0H30.9l-.009,4.633c12.321.9,13.493,2.045,13.493,2.045l.793,10.453a49.262,49.262,0,0,0-14.3-3.867L30.842,26.92l.18,0c14.83,2.353,20.794,11.9,20.9,18.564.1,6.285-4.709,18.933-21.164,21.24l-.018,9.213ZM30.789,53.448c6.8-.836,8.766-2.873,8.4-7.612-.309-3.968-3.586-5.875-8.367-6.9ZM13.76,20.229c-.033,1.377,1.228,4.09,7.578,5.613l.375-11.912C13.752,15.832,13.8,18.479,13.76,20.229Z" transform="translate(42.879 18.905)" fill="#dbae28"/>
    </g>
    <g id="Moeda_copiar_2-6" data-name="Moeda copiar 2" transform="translate(1.001 37.541)">
      <ellipse id="Elipse_5-33" data-name="Elipse 5" cx="70.076" cy="59.815" rx="70.076" ry="59.815" transform="translate(0.501 13.014)" fill="#dc5209"/>
      <g id="Elipse_5_copiar-33" data-name="Elipse 5 copiar" fill="#fe6b1d" stroke="#dbae28" stroke-width="20">
        <ellipse cx="70.577" cy="59.815" rx="70.577" ry="59.815" stroke="none"/>
        <ellipse cx="70.577" cy="59.815" rx="60.577" ry="49.815" fill="none"/>
      </g>
      <path id="Retângulo_4-33" data-name="Retângulo 4" d="M19.762,75.941l.281-8.95C3.664,66.325,0,62.633,0,62.633l1.464-14.52a64.685,64.685,0,0,0,19,5.562l.5-15.945C12.4,36.872-.09,34.411.8,19.337,1.507,7.483,14.458,4.988,22.01,4.486L22.151,0H30.9l-.009,4.632c12.321.9,13.493,2.045,13.493,2.045l.793,10.453a49.259,49.259,0,0,0-14.3-3.867L30.842,26.92l.18,0c14.83,2.353,20.794,11.9,20.9,18.564.1,6.285-4.709,18.932-21.164,21.24l-.018,9.213ZM30.789,53.448c6.8-.836,8.766-2.874,8.4-7.612-.309-3.968-3.586-5.875-8.367-6.9ZM13.76,20.229c-.033,1.377,1.228,4.09,7.578,5.613l.375-11.912C13.752,15.832,13.8,18.479,13.76,20.229Z" transform="translate(42.879 18.905)" fill="#dbae28"/>
    </g>
    <g id="Moeda_copiar_3-6" data-name="Moeda copiar 3" transform="translate(13.014 28.031)">
      <ellipse id="Elipse_5-34" data-name="Elipse 5" cx="70.076" cy="59.815" rx="70.076" ry="59.815" transform="translate(0.501 13.014)" fill="#dc5209"/>
      <g id="Elipse_5_copiar-34" data-name="Elipse 5 copiar" fill="#fe6b1d" stroke="#dbae28" stroke-width="20">
        <ellipse cx="70.577" cy="59.815" rx="70.577" ry="59.815" stroke="none"/>
        <ellipse cx="70.577" cy="59.815" rx="60.577" ry="49.815" fill="none"/>
      </g>
      <path id="Retângulo_4-34" data-name="Retângulo 4" d="M19.762,75.941l.282-8.95C3.664,66.325,0,62.633,0,62.633l1.463-14.52a64.655,64.655,0,0,0,19,5.562l.5-15.945C12.4,36.872-.09,34.411.8,19.337,1.507,7.483,14.458,4.988,22.01,4.486L22.151,0H30.9l-.009,4.632c12.321.9,13.493,2.045,13.493,2.045l.793,10.453a49.257,49.257,0,0,0-14.3-3.867L30.842,26.92l.18,0c14.83,2.353,20.795,11.9,20.9,18.564.1,6.285-4.709,18.932-21.164,21.24l-.018,9.214ZM30.789,53.448c6.8-.836,8.766-2.873,8.4-7.612-.309-3.968-3.586-5.875-8.367-6.9ZM13.76,20.229c-.033,1.377,1.226,4.09,7.578,5.613l.375-11.912C13.752,15.831,13.8,18.479,13.76,20.229Z" transform="translate(42.879 18.905)" fill="#dbae28"/>
    </g>
    <g id="Moeda_copiar_4-6" data-name="Moeda copiar 4" transform="translate(0 16.017)">
      <ellipse id="Elipse_5-35" data-name="Elipse 5" cx="70.076" cy="59.815" rx="70.076" ry="59.815" transform="translate(0.501 13.014)" fill="#dc5209"/>
      <g id="Elipse_5_copiar-35" data-name="Elipse 5 copiar" fill="#fe6b1d" stroke="#dbae28" stroke-width="20">
        <ellipse cx="70.577" cy="59.815" rx="70.577" ry="59.815" stroke="none"/>
        <ellipse cx="70.577" cy="59.815" rx="60.577" ry="49.815" fill="none"/>
      </g>
      <path id="Retângulo_4-35" data-name="Retângulo 4" d="M19.762,75.941l.281-8.95C3.664,66.325,0,62.634,0,62.634l1.463-14.52a64.688,64.688,0,0,0,19,5.562l.5-15.945C12.4,36.872-.09,34.411.8,19.337,1.507,7.483,14.458,4.988,22.01,4.486L22.151,0H30.9l-.009,4.633c12.321.9,13.493,2.044,13.493,2.044l.793,10.453a49.261,49.261,0,0,0-14.3-3.867L30.842,26.92l.18,0c14.831,2.353,20.795,11.9,20.9,18.564.1,6.285-4.709,18.932-21.164,21.24l-.018,9.213ZM30.789,53.448c6.8-.836,8.766-2.873,8.4-7.612-.309-3.968-3.586-5.875-8.367-6.9ZM13.76,20.229c-.033,1.377,1.226,4.09,7.578,5.613l.375-11.912C13.752,15.831,13.8,18.479,13.76,20.229Z" transform="translate(42.879 18.905)" fill="#dbae28"/>
    </g>
    <g id="Moeda_copiar_5-6" data-name="Moeda copiar 5" transform="translate(9.01)">
      <ellipse id="Elipse_5-36" data-name="Elipse 5" cx="70.076" cy="59.815" rx="70.076" ry="59.815" transform="translate(0.501 13.014)" fill="#dbae28"/>
      <g id="Elipse_5_copiar-36" data-name="Elipse 5 copiar" fill="#dbae28" stroke="#dbae28" stroke-width="20">
        <ellipse cx="70.577" cy="59.815" rx="70.577" ry="59.815" stroke="none"/>
        <ellipse cx="70.577" cy="59.815" rx="60.577" ry="49.815" fill="none"/>
      </g>
      <path id="Retângulo_4-36" data-name="Retângulo 4" d="M19.762,75.942l.281-8.95C3.664,66.325,0,62.634,0,62.634l1.463-14.52a64.68,64.68,0,0,0,19,5.562l.5-15.945C12.4,36.872-.09,34.411.8,19.337,1.507,7.483,14.458,4.988,22.01,4.486L22.151,0H30.9l-.009,4.633c12.319.9,13.493,2.045,13.493,2.045l.793,10.453a49.259,49.259,0,0,0-14.3-3.867L30.842,26.92l.18,0c14.831,2.354,20.795,11.9,20.9,18.564.1,6.285-4.709,18.933-21.164,21.24l-.018,9.214ZM30.789,53.448c6.8-.836,8.766-2.873,8.4-7.612-.309-3.968-3.586-5.875-8.367-6.9ZM13.76,20.229c-.033,1.377,1.226,4.09,7.578,5.613l.375-11.912C13.752,15.832,13.8,18.48,13.76,20.229Z" transform="translate(42.879 18.905)" fill="#dbae28"/>
    </g>
  </g>
</svg>
