<svg xmlns="http://www.w3.org/2000/svg" xmlns:xlink="http://www.w3.org/1999/xlink" width="26" height="26" viewBox="0 0 26 26">
  <defs>
    <clipPath id="clip-path">
      <rect id="Ret칙ngulo_1029" data-name="Ret칙ngulo 1029" width="26" height="26" transform="translate(517 3494)" fill="#a61731" stroke="#707070" stroke-width="1"/>
    </clipPath>
  </defs>
  <g id="Grupo_de_m치scara_105" data-name="Grupo de m치scara 105" transform="translate(-517 -3494)" clip-path="url(#clip-path)">
    <g id="sair" transform="translate(517 3494)">
      <g id="Grupo_38668" data-name="Grupo 38668">
        <path id="Caminho_41440" data-name="Caminho 41440" d="M23.292,26H11.375a2.712,2.712,0,0,1-2.708-2.708V17.875a.542.542,0,0,1,1.083,0v5.417a1.627,1.627,0,0,0,1.625,1.625H23.292a1.627,1.627,0,0,0,1.625-1.625V2.708a1.627,1.627,0,0,0-1.625-1.625H11.375A1.627,1.627,0,0,0,9.75,2.708V8.125a.542.542,0,1,1-1.083,0V2.708A2.712,2.712,0,0,1,11.375,0H23.292A2.712,2.712,0,0,1,26,2.708V23.292A2.712,2.712,0,0,1,23.292,26Z" fill="#a61731"/>
      </g>
      <g id="Grupo_38669" data-name="Grupo 38669">
        <path id="Caminho_41441" data-name="Caminho 41441" d="M16.792,13.542H.542a.542.542,0,1,1,0-1.083h16.25a.542.542,0,0,1,0,1.083Z" fill="#a61731"/>
      </g>
      <g id="Grupo_38670" data-name="Grupo 38670">
        <path id="Caminho_41442" data-name="Caminho 41442" d="M12.458,17.875a.541.541,0,0,1-.384-.924L16.026,13l-3.95-3.95a.542.542,0,0,1,.766-.766l4.333,4.333a.542.542,0,0,1,0,.766l-4.333,4.333A.544.544,0,0,1,12.458,17.875Z" fill="#a61731"/>
      </g>
    </g>
  </g>
</svg>
